<?xml version="1.0" encoding="utf-8"?>
<!-- Generator: Adobe Illustrator 26.5.0, SVG Export Plug-In . SVG Version: 6.00 Build 0)  -->
<svg version="1.1" id="Layer_1" xmlns="http://www.w3.org/2000/svg" xmlns:xlink="http://www.w3.org/1999/xlink" x="0px" y="0px"
	 viewBox="0 0 1080 1080" style="enable-background:new 0 0 1080 1080;" xml:space="preserve">
<g id="Bear">
	<g>
		<path d="M320.2,737c-9.4-11.3-20.6-27.8-22.5-51.2c-1.3-15.3,10.8-33,23.5-42.4c7.3-5.4,14.5-10.9,21.5-16.7
			c8.6-7.3,11.4-16.8,10.1-27.2c-2-15.2-5.3-30.2-9.5-45c-2.8-10.2-10.1-16.4-21.6-18.6c-13.2-2.4-26.5-3.4-40-3.2
			c-23.7,0.2-45.3,2.7-68.7,6.1c-22.1,3.3-42.4-0.4-60.9-11.9c-0.4-0.3-16.6-11.4-7.2-20.1c14.9-11.2,27.2-24.7,38.6-38.7
			c1.7-2,2.2-4.2,1.8-6.5c-0.9-6.2-0.5-11.1,3.7-15.8c11.4-12.9,22.6-26.1,33.9-39.2c4.1-4.8,5.9-14.7,7.5-20.5
			c1.6-5.9,5.8-8.2,11.1-4.8c12.1,7.9,24.6,11,37.9,8.2c15.3-3.4,178.1-23,179.8-23.1c15.6-1,31.4-1.8,47-3.1
			c21.7-1.7,43.5-3.3,65.1-5.6c18.2-2,72-5.6,80.5-4.5c13.9,1.7,27.7,3.6,41.2,7.3c16.2,4.5,30.7,12,44.7,20.8
			c13.9,8.8,92.2,64.9,107.8,137.6c2.4,14.2,6.4,27.9,11.5,41.3c11.2,29.3,26.6,57,40.4,85.3c4.3,8.8,9.5,17.3,12.6,26.5
			c9.1,30.4-1.2,73.8-1.7,74.2h-65.8c1.2-3,4.2-39.6,3.1-42.7c-14.9-42.9-82.4-109.7-111.8-97.1c-23.3,13.7-41.8,31.7-55.5,53.9
			c-12.2,19.8-40.8,85.1-42.3,87.5h-92.7c0.6,0.5,24.8-78,29-93.2c3.6-13.5,13-36.9,7.9-45.1c-7.2-11.4-44.7-20.1-51.2-11.1
			c-5.5,7.7,1.4,18.4,3.3,27.4c4.4,21.8,5.6,43.5-0.1,65.2c-5.2,20.7-19.3,49.8-22.7,56.7h-70.4c-0.1-0.2,6.9-7.6,13.7-17.6
			c9.6-13.9,12.9-30.7,9.7-46.9c-1.6-8.1-3.9-16.1-6.9-23.9c-0.2-0.5-0.4-1.1-0.6-1.6c-3.3-7.1-5.5-7.5-10.9-1.6
			c-8.7,9.6-21.3,18.4-32.7,19.2c-17,6.3-75.7-2.5-58.6,33.3L320.2,737z"/>
	</g>
</g>
</svg>
