<?xml version="1.0" encoding="utf-8"?>
<!-- Generator: Adobe Illustrator 26.5.0, SVG Export Plug-In . SVG Version: 6.00 Build 0)  -->
<svg version="1.1" id="Layer_1" xmlns="http://www.w3.org/2000/svg" xmlns:xlink="http://www.w3.org/1999/xlink" x="0px" y="0px"
	 viewBox="0 0 1080 1080" style="enable-background:new 0 0 1080 1080;" xml:space="preserve">
<style type="text/css">
	.st0{fill:#020202;}
</style>
<g id="Bird">
	<g id="C4xrBT_00000067956837854592319770000016445296595691658159_">
		<g>
			<path class="st0" d="M508,635.8c-37.2,4.6-59.7-7.5-75.9-18.9c-16.6-11.7-31.7-32.1-42.1-48.8c-28.4-45.7-45.2-92-32-151.4
				c2.8-12.5,2.6-25.4-2.8-37.6c-9.8-22.4-21.7-41.5-46-43.9c-4.1-0.4-15.3,1.3-19.5-0.1c1.2-4.4,10.7-8,12.4-8.8
				c14.8-7.2,31-16.6,44.1-26.8c28.5-22,62.3-22.9,90.1,0.6c15.3,12.9,25.8,34.6,34.4,53.7c5.2,11.5,11.1,22.2,21.4,28.8
				c47.1,30.3,75.6,50.7,127.3,111.8c35.7,42.3,87.4,137.6,242.6,228c1.3,0.8,7.3,4.3,11.1,7.1c2.9,2.1,1.6,7.3-1.9,7.3
				c-6.5,0-14.6-2.2-18.8-2.4c-11.6-0.4-14.7,3.4-15.1,11.4c-0.5,10.2-0.4,21.8-6.6,18.5c-3.5-1.9-12.1-11.8-16-15.8
				c-8.9-9.2-15.5-14.2-26-24.4c-6.4-6.3-16-13.7-22.5-19.8c-47.1-44.5-99.2-75.8-161.4-80.3C579.6,623.4,508,635.8,508,635.8z"/>
		</g>
	</g>
</g>
</svg>
