<?xml version="1.0" encoding="utf-8"?>
<!-- Generator: Adobe Illustrator 26.5.0, SVG Export Plug-In . SVG Version: 6.00 Build 0)  -->
<svg version="1.1" id="Layer_1" xmlns="http://www.w3.org/2000/svg" xmlns:xlink="http://www.w3.org/1999/xlink" x="0px" y="0px"
	 viewBox="0 0 1080 1080" style="enable-background:new 0 0 1080 1080;" xml:space="preserve">
<style type="text/css">
	.st0{fill:none;stroke:#000000;stroke-width:12;stroke-linecap:round;stroke-miterlimit:10;}
</style>
<g id="Bison">
	<g>
		<g>
			<path d="M781,485.4c2-46.3-30.5-72-61.5-80.9c-18.5-5.3-37.6-7-56.6-10c-50.1-8-100.2-15.7-150.3-23.5
				c-22.7-3.6-45.5-7.2-68.2-10.7c-29.2-4.4-53.7,5.4-74.9,24.6c-6.2,5.6-12.3,11.7-17.9,17.9c-7,7.8-15.9,11.1-26,12.3
				c-9.5,1.1-19,0.4-28.5,0c-10-0.4-19.8,0.4-29.2,3.8c-3.1,1.2-3.6,0.2-4.4-2.6c-6-20.1-25.2-31.7-43.4-26.8l-4.9,1.3
				c-1.1,2.8-1.2,3.1-2.2,5.8c3.1,4.6,7.2,7.4,12.6,9.3c7.3,2.5,10.1,9.1,11.4,16.1c1.9,10.5,1.8,20.2-3.8,30.2
				c-10.7,19-10.3,39.6-6.2,60.6c4.8,24.9,9.3,49.7,13.7,74.6c2.4,13.2,10.1,21.5,23.2,24.8c11.1,2.8,22.2,5.3,33.3,7.8
				c11.5,2.5,21.5,0,29.6-8.7c4.2-4.6,8.5-8.9,12.5-13.5c8.5-9.9,23.5-10.2,32.3,0.1c13.3,15.9,27.2,31.2,38.1,48.9
				c3.4,5.4,4.9,10.9,4.9,17.2c-0.1,27.4,0.1,54.8,0.2,82.2l68.4,1.7c0-29,0-57.8,0-86.7c0-5.3,0.2-10.7,0.7-16
				c1.4-15.3,9-22.7,24.6-24.8c9.3-1.2,18.6-1.1,27.9-1.1c25.4,0,50.8,1.3,76.1-2.3c7.8-1.1,15.7-2.4,23.4-4.1
				c4.9-1.1,9.3-0.6,13.2,2.3c12.6,9.4,22.3,21,29.2,35c1.4,3,1.4,6.2,1.4,9.5c0,29,0,57.8,0,86.7l68.6,1c0-28,0.4-56-0.1-83.9
				C747.7,648.9,781,485.4,781,485.4z"/>
		</g>
		<path class="st0" d="M867,560.1c0,0,0.7,31-28,25.1c-44.2-9.1-43.1-164.5-122.3-173.6"/>
	</g>
</g>
</svg>
