<?xml version="1.0" encoding="utf-8"?>
<!-- Generator: Adobe Illustrator 26.5.0, SVG Export Plug-In . SVG Version: 6.00 Build 0)  -->
<svg version="1.1" id="Layer_1" xmlns="http://www.w3.org/2000/svg" xmlns:xlink="http://www.w3.org/1999/xlink" x="0px" y="0px"
	 viewBox="0 0 1080 1080" style="enable-background:new 0 0 1080 1080;" xml:space="preserve">
<style type="text/css">
	.st0{fill:#020202;}
	.st1{fill:none;stroke:#000000;stroke-width:20;stroke-linecap:round;stroke-miterlimit:10;}
</style>
<g id="Black-footed_ferrets">
	<g id="mwnk1p.tif">
		<g>
			<path class="st0" d="M531.4,746.8c-0.8-13.7,40.4-18,37.9-39.1c-2.5-20.6-6.7-31.3-4.3-47.5c0.4-2.5-0.5-3.1-2.7-3.7
				c-10.5-2.8-20.8-2.6-30.3,3.1c0,0-28.2,10.5-40.3,85.1h-50.9c-4.3-17.6-4.4-75.8-4.3-93.7c0-2.7-0.7-5.4-2.1-7.8
				c-11.6-19.7-29.6-55.4-50.2-68.3c-4.5-2.8-10.1-3.6-15-5.8c-19.7-9-56.4-25.2-52.7-44.1c2.7-8.3,8.9-12.5,16.8-14.1
				c7.6-1.5,14.3-5,20.9-8.9c9.5-5.7,19-11.4,29.6-15c3.7-1.3,21.1-3.2,21.1-3.2c0.2,0.3,18.9-2,34.5,18.8
				c8.8,9.2,15.5,19.9,23.3,29.9c12.6,16.4,20.3,18.7,39.6,11.6c14.8-5.5,29.3-11.6,44.2-16.7c22.6-7.7,45.6-10.4,69.2-4.1
				c54.1,14.3,90,74.7,85.6,127.4l-18.5,47.1c-23,41-62,50-62,50L531.4,746.8z"/>
		</g>
	</g>
	<path class="st1" d="M777.8,656.8c0,0,2,36-37,36c-33,0-49-29-60-98"/>
</g>
</svg>
