<?xml version="1.0" encoding="utf-8"?>
<!-- Generator: Adobe Illustrator 26.5.0, SVG Export Plug-In . SVG Version: 6.00 Build 0)  -->
<svg version="1.1" id="Layer_1" xmlns="http://www.w3.org/2000/svg" xmlns:xlink="http://www.w3.org/1999/xlink" x="0px" y="0px"
	 viewBox="0 0 1080 1080" style="enable-background:new 0 0 1080 1080;" xml:space="preserve">
<style type="text/css">
	.st0{fill:none;stroke:#020202;stroke-width:7;stroke-linecap:round;stroke-miterlimit:10;}
</style>
<g id="Butterfly">
	<g>
		<path d="M552.8,520.6c2.8,3.2,5,6.9,7.1,11.2c3.3-12.6,86.5-129.1,165.8-169.7c21.4-11,44.6-16.5,68.9-16
			c6.9,0.1,13.8,0.4,20.5,1.8c16.4,3.3,21.7,11,19.3,27.8c-2.5,17.1-8,33.3-14.4,49.2c-16.7,42-37,82-62.3,119.6
			c-4.4,6.6-9.3,12.7-14.4,18.8c-8.3,9.9-19.2,13.9-31.5,14.9c-5.1,0.4-10.2,0.1-15.7-0.7c0.4,0.7,0.6,1,0.8,1.2
			c19.1,17.2,32,27.6,31.3,52.8c-0.6,20.4-9.1,56.5-26.1,67.9c-41.4,27.8-144.6-105.7-143.9-104.8c-0.3-0.4-7.5,83.6-8.9,95.5
			c-0.4,2.9-1,5.8-2.2,8.4c-1.3,2.8-3.2,5-6.5,5.1c-3.3,0-5.2-2.3-6.5-5c-2.2-5.1-2.8-10.6-3-16.1c-0.7-18.6-9.5-88.3-10.1-88.2
			c0,6.9-138.6,184.7-161.6,71.6c-3.6-18-4.3-36,1.4-53.8c4.1-12.6,11-23.4,20.7-32.4c0.7-0.7,1.7-1,1.9-2.3
			c-10.4,1.7-20.4,1-30.4-2.4c-8.4-2.8-14.4-8.8-19.8-15.4c-13.8-16.9-25-35.5-35.5-54.5c-17.9-32.3-33.9-65.5-45.4-100.7
			c-3.9-12-7.5-24.2-7.5-37c0.1-8.5,3.6-13.9,11.6-17.1c9.1-3.7,18.8-3.9,28.5-4.1c26.5-0.5,51.7,5.8,74.5,18.6
			c87.5,48.9,159,162.6,160.4,166.8c2.1-4.2,4.4-8,7.3-11.2c2.5-3,6.3-4.7,10.1-4.7h4.2C545.9,515.5,550,517.3,552.8,520.6z"/>
	</g>
	<path class="st0" d="M545.3,519.9v-49.4c0,0-0.2-8.6,8.6-8.6c8.8,0,8.3,8.4,8.3,8.4"/>
	<path class="st0" d="M534.4,540.3V491c0,0,0.2-8.6-7.9-8.6c-8,0-7.8,8.4-7.8,8.4"/>
</g>
</svg>
