<?xml version="1.0" encoding="utf-8"?>
<!-- Generator: Adobe Illustrator 26.5.0, SVG Export Plug-In . SVG Version: 6.00 Build 0)  -->
<svg version="1.1" id="Layer_1" xmlns="http://www.w3.org/2000/svg" xmlns:xlink="http://www.w3.org/1999/xlink" x="0px" y="0px"
	 viewBox="0 0 1080 1080" style="enable-background:new 0 0 1080 1080;" xml:space="preserve">
<g id="Chimpanzee">
	<g>
		<path d="M764.8,746.3c-3.1-7.2-5.4-13.8-8.5-19.8c-14.7-29.5-34.7-55.1-58-78.2c-2.7-2.7-3.9-5.4-3.3-8.9
			c1.9-11.8,2.9-24.1,5.8-35.9c5.4-22.1,8-44.4,5-67.1c-2.3-18.4-7-35.9-20.2-49.7c-9.7-10.3-21.7-17.8-34.1-24.2
			c-34.3-18-71.4-25.4-109.8-27.9c-21.7-1.6-43.3-0.4-64.8,1c-9.7,0.6-17.8-1.9-25.6-8.1c-14.4-11.4-30.5-19-48.9-21.7
			c-22.5-3.3-43.6,6-53.9,25c-7.4,13.6-7.8,28.7-5.8,43.5c1.6,11.4,2.3,22.5-0.2,33.9c-1.6,7.4,0.6,14.4,6.4,19.4
			c10.5,9.5,22.1,13.6,35.9,7.2c12.2-5.6,24.8-10.9,37-16.3c4.3-1.9,8.5-3.3,13-3.1c2.9,0,4.7,1,3.7,4.5c-1.2,3.7-1.7,7.6-3.1,11.3
			c-9.9,28.1-18.6,56.6-26.4,85.4c-4.5,16.7-9.7,33-16.7,48.9c-4.7,10.3-10.5,20-15.3,30.1c-6.8,13.8-11.3,28.3-13.6,43.6
			c-0.6,4.1-0.2,6.2,5,5.8c8.7-0.6,17.5-0.2,26.2-0.2c6.8,0,6.8,0.2,5.6-6.2c-0.2-1.2-0.4-2.3-0.4-3.3c0.2-9.7,0.2-19.4,0.6-29.1
			c0-2.5-0.2-5.2,2.1-7.4c1.2,2.1,1.9,4.3,3.1,6c7.2,11.3,14,22.5,27.4,27.5c13.2,4.8,29.3-0.4,34.7-12c3.7-7.4,1.4-16.5-5-20.8
			c-3.1-2.1-6.4-2.1-9.7-0.6c-3.1,1.6-4.1,4.5-3.9,7.8c0,1.4,0.4,3.1,0,4.3c-0.8,2.3-2.9,4.7-4.8,2.3c-4.7-5-9.5-10.3-9.3-18
			c0.2-6.2,1.4-12.2,3.9-17.8c4.7-10.7,12.8-18.4,22.1-25.2c18.2-13.4,35.1-28.5,51-44.6c4.8-4.8,7.4-10.5,6.8-17.3
			c-0.2-4.3,0.2-8.3,0.2-12.6c0-2.7,0.8-3.3,3.5-2.1c20,9.3,41.5,13.6,62.5,20c3.3,1,3.9,1.4,1.7,4.5c-7.8,11.6-15.3,23.7-18.6,37.4
			c-4.5,18.8-11.6,36.9-18,55.1c-6,16.9-12,33.8-18,50.4c-1.2,3.3-1,4.7,3.3,4.7c14.5-0.2,29.1-0.2,43.6,0c2.1,0,3.7,0,4.8-2.7
			c9.5-22.9,19.6-45.6,26.8-69.4c1.2-3.7,3.1-6,6.2-8.1c8.1-5,16.3-10.5,23.1-17.5c3.7-3.7,3.7-3.9,5.8,1.4c0.4,1.2,1.2,2.3,1.4,3.5
			c2.7,10.5,8.3,19.2,16.3,26.4c7.2,6.6,14.7,13.2,21.9,19.8c13.8,12.6,27.5,25.4,36.7,42.1c1.2,2.1,2.7,2.9,5,2.9
			C739.7,746.3,751.8,746.3,764.8,746.3z"/>
		<path d="M764.8,746.3c-13,0-25,0-37.2,0c-2.3,0-3.9-0.8-5-2.9c-9.1-16.7-22.9-29.5-36.7-42.1c-7.2-6.6-14.7-13.2-21.9-19.8
			c-8-7.2-13.6-15.9-16.3-26.4c-0.4-1.2-1-2.3-1.4-3.5c-2.1-5.2-2.1-5.2-5.8-1.4c-6.8,7-14.9,12.4-23.1,17.5
			c-3.3,1.9-5.2,4.5-6.2,8.1c-7,23.9-17.1,46.6-26.8,69.4c-1.2,2.7-2.5,2.7-4.8,2.7c-14.5,0-29.1-0.2-43.6,0c-4.3,0-4.5-1.4-3.3-4.7
			c6-16.9,12-33.6,18-50.4c6.4-18.2,13.6-36.1,18-55.1c3.3-13.8,10.9-25.8,18.6-37.4c2.1-3.1,1.6-3.5-1.7-4.5
			c-20.9-6.4-42.5-10.7-62.5-20c-2.5-1.2-3.5-0.6-3.5,2.1c0,4.3-0.4,8.3-0.2,12.6c0.4,7-1.9,12.4-6.8,17.3
			c-15.9,16.1-32.6,31.2-51,44.6c-9.1,6.8-17.3,14.5-22.1,25.2c-2.5,5.6-3.7,11.6-3.9,17.8c-0.2,7.6,4.8,12.8,9.3,18
			c1.9,2.1,4.1,0,4.8-2.3c0.4-1.4,0-2.9,0-4.3c-0.2-3.3,0.8-6.2,3.9-7.8c3.3-1.6,6.4-1.6,9.7,0.6c6.4,4.3,8.5,13.2,5,20.8
			c-5.6,11.4-21.5,16.9-34.7,12c-13.4-5-20.2-16.5-27.4-27.5c-1.2-1.9-2.1-3.9-3.1-6c-2.3,2.1-2.1,4.8-2.1,7.4
			c-0.2,9.7-0.4,19.4-0.6,29.1c0,1.2,0.2,2.3,0.4,3.3c1.2,6.4,1.2,6.4-5.6,6.2c-8.7,0-17.5-0.4-26.2,0.2c-5,0.4-5.6-1.7-5-5.8
			c2.1-15.3,6.8-29.9,13.6-43.6c5-10.1,10.9-19.8,15.3-30.1c7-15.7,12.2-32.2,16.7-48.9c7.6-28.9,16.5-57.2,26.4-85.4
			c1.4-3.7,1.9-7.6,3.1-11.3c1.2-3.5-0.8-4.5-3.7-4.5c-4.7-0.2-8.9,1.4-13,3.1c-12.4,5.4-24.8,10.7-37,16.3
			c-13.8,6.2-25.4,2.1-35.9-7.2c-5.6-5-8-12.2-6.4-19.4c2.5-11.4,1.7-22.5,0.2-33.9c-2.1-14.7-1.6-29.9,5.8-43.5
			c10.3-19,31.4-28.3,53.9-25c18.4,2.7,34.5,10.3,48.9,21.7c7.6,6,15.9,8.7,25.6,8.1c21.5-1.4,43.3-2.5,64.8-1
			c38.2,2.7,75.5,9.9,109.8,27.9c12.4,6.6,24.4,14,34.1,24.2c13.2,14,17.8,31.4,20.2,49.7c2.9,22.7,0.4,45-5,67.1
			c-2.9,11.8-3.7,23.9-5.8,35.9c-0.6,3.7,0.6,6.4,3.3,8.9c23.3,23.1,43.1,48.9,58,78.2C759.5,732.8,761.8,739.2,764.8,746.3z"/>
	</g>
</g>
</svg>
