<?xml version="1.0" encoding="utf-8"?>
<!-- Generator: Adobe Illustrator 26.5.0, SVG Export Plug-In . SVG Version: 6.00 Build 0)  -->
<svg version="1.1" id="Layer_1" xmlns="http://www.w3.org/2000/svg" xmlns:xlink="http://www.w3.org/1999/xlink" x="0px" y="0px"
	 viewBox="0 0 1080 1080" style="enable-background:new 0 0 1080 1080;" xml:space="preserve">
<style type="text/css">
	.st0{fill:#020202;}
</style>
<path class="st0" d="M713,747.7c-9.2,0-17.8-0.1-26.4,0.1c-2.5,0-2.4-1.7-2.9-3.2c-3.5-12.2-7.7-24.1-13-35.7
	c-8.6-19-22.4-32.6-41.4-41.6c-13.4-6.3-25.5-14.7-34-27.3c-0.4-0.6-1-1-1.5-1.4c-0.9-0.8-1.8-1.7-3.1-1.1c-1.1,0.5-1.1,1.7-1.2,2.8
	c-0.4,4.8,0.8,9.1,3.7,12.9c3.8,5.1,7.9,9.9,10.8,15.6c5,10.1,5.2,20.2,0,30.1c-7.7,14.8-14,30.3-18.7,46.3
	c-0.6,1.9-1.4,2.5-3.5,2.5c-5.9-0.2-11.8-0.1-17.7,0c-2.5,0.1-3.2-0.3-2.3-3.1c4.1-12.1,7.7-24.4,11.9-36.5
	c4-11.4,2.7-21.4-5.2-30.9c-9.7-11.7-19.5-23.2-28.4-35.6c-1.3-1.8-3-2.3-5.2-2.1c-14,1.5-23.4,9.2-27.6,22.6
	c-6.3,19.8-8.5,40.2-8.3,60.9c0,7.3-0.2,14.6-0.1,21.9c0,2.1-0.6,2.8-2.8,2.8c-6.2-0.1-12.5-0.1-18.7,0c-2.3,0.1-3-0.6-2.9-3
	c0.1-16.3,0-32.5,0.1-48.8c0-4.6-0.5-9.2-1.4-13.7c-2-9.9-11.2-15.3-20.8-12.2c-9.5,3.1-17,9.2-23,16.9
	c-13.4,17.3-23.1,36.5-28.1,57.9c-0.6,2.4-1.5,2.9-3.7,2.9c-6.2-0.1-12.5-0.2-18.7,0c-2.7,0.1-3.1-0.7-3.1-3.4
	c0.5-17.2,5.9-33.2,10.7-49.4c7-23.6,9.1-47.9,6.6-72.3c-1-10.1-3.2-19.9-2.5-30.2c1.1-14.5,3.5-28.7,7.5-42.6
	c3.2-11.2,5.2-22.7,5.9-34.3c0.8-14.1,1.9-28.2,2.7-42.3c0.4-6.5-0.2-7.1-6.5-8.6c-4.4-1-8-3.3-11.5-5.9c-4.2-3.2-5.6-7.4-4.1-12.5
	c2.1-7.1,4.2-14.2,4.7-21.7c0.3-5.1,0.2-10.1-0.8-15.1c-1.1-5.9-0.2-11.3,3.6-15.9c1.6-1.9,1.5-3.5-0.1-5.3c-2-2.4-4.3-4.3-6.8-6.1
	c-10.7-7.8-17-17.8-16.4-31.7c0.3-6.5-0.8-13.1-1.3-19.7c-0.3-3.7,0.7-4.5,4.2-3.3c3.4,1.2,6,3.7,8.6,6.1
	c7.2,6.6,14.2,13.5,19.7,21.6c2.2,3.1,3.7,6.6,4.3,10.3c0.5,3.4,2,6.2,4.1,8.8c2.7,3.4,6,4.7,10.3,3.4c5.1-1.6,10.2-2.9,15.6-2.9
	c4.1,0,7.8,1.2,11.1,3.7c2.4,1.8,5,3.5,7.6,5.1c5.8,3.5,10.6,3.1,15.3-1.9c5.6-6,10.7-12.5,16.1-18.7c5.3-5.9,11.2-11.2,18-15.3
	c3.1-1.9,4.7-1.4,5.4,1.5c2.7,11.5,3.5,23-1.2,34.3c-3.6,8.6-9.7,15.3-18,19.1c-18.7,8.7-27.3,24-30.2,43.4
	c-2.1,13.8-2.9,27.6-1.7,41.6c1.5,18.6,12,28.8,30.9,30.1c21.1,1.4,41.7-2,62.3-6.6c28.5-6.3,55.4-2.4,79.8,14.6
	c6.2,4.3,11.7,9.6,15.8,16c7.2,11,7.4,23,4.2,35.3c-3.2,12.1-3.9,24.4-3.8,36.8c0.1,10.2,5.3,18.2,11.1,25.8
	c5.5,7.2,11.6,13.9,17.6,20.7c14.8,16.8,23.7,36.6,29.8,57.8C707.2,727.5,710,737.4,713,747.7z"/>
</svg>
