<?xml version="1.0" encoding="utf-8"?>
<!-- Generator: Adobe Illustrator 26.5.0, SVG Export Plug-In . SVG Version: 6.00 Build 0)  -->
<svg version="1.1" id="Layer_1" xmlns="http://www.w3.org/2000/svg" xmlns:xlink="http://www.w3.org/1999/xlink" x="0px" y="0px"
	 viewBox="0 0 1080 1080" style="enable-background:new 0 0 1080 1080;" xml:space="preserve">
<g id="Elephant">
	<g>
		<path d="M855.2,616.7c1.8-45.2-2.5-90.5-12.3-134.4c-3.9-17.5-6.9-33.7-14.6-46.8c-0.6-1.1-4.6-6.9-4.6-6.9
			c2.1,10.4,2.3,21.4,2.6,31.8c0.5,15.7-0.1,30.3-0.1,46.4c0,2.1-0.4,4.1-0.4,6.2c0,83,0,147.6,0.1,230.6c0,3.3-0.6,4.2-4.1,4.2
			c-24.2-0.2-48.3-0.2-72.5-0.1c-2.5,0-3.9-0.1-4.2-3.5c-2.3-24.9-4.8-31.4-7.3-56.3c-2-20.2-4.1-40.4-6.1-60.6
			c-0.2-1.7-0.6-2.3-2.4-2.7c-3-0.6-5.8-1.7-9.2-2.8c0,1.5,0,2.8,0,4.1c0,45.2-0.1,72.1,0.1,117.3c0,3.5-0.8,4.4-4.3,4.4
			c-24.2-0.2-48.3-0.2-72.5,0c-2.8,0-3.6-0.6-3.9-3.5c-3.1-32.9-6.4-47.4-9.7-80.4c-1.5-14.5-2.9-29-4.1-43.5
			c-0.3-3.3-1.5-4.1-5.9-4.4c-22.2-2.1-44.1-6.9-65.1-14.6c-5.7-2.1-6.3-1.8-6.3,1.9c0.1,54.4,0,85.9,0.2,140.3c0,3.6-1,4.2-4.4,4.2
			c-17.5-0.2-35-0.2-52.5,0c-1.9,0-3.5-1.5-3.7-3.5c-1-16.4-2.2-32.7-3.3-49.1c-1.5-21.2-2.8-19.3-4.3-40.4
			c-1.4-20.2-2.8-40.5-4.1-60.8c-0.3-5-0.6-10-0.9-14.9c-0.3-5.1-0.3-5.1-6-6.1c0,1.5,0,2.8,0,4.1c0,63.3,0,103.5,0.1,166.7
			c0,3.2-0.8,4-4,3.9c-17.6-0.2-35.3-0.2-52.9,0c-2.6,0-3.5-0.6-3.6-3.3c-2.8-41.6-5.8-60.3-8.7-102c-2.5-36.6-5.1-73.4-7.7-110.1
			c-0.2-2-0.8-3.2-2.4-4.4c-9.1-7.4-14.7-7.4-20.3-17.8c-1.5-2.8-4.3-4.6-7.3-3.8c-5.2,1.2-14.3,10.3-17.5,17.6
			c-1.7,3.8-3.1,6.7-4.1,10.4c-1.5,5.1-5.8,3.4-8.2-1.3c-3.2-6.1-5.3-13.2-5.9-19.9c-1.4-13.5,2.8-19.3,3.5-32.9
			c0.2-2.8-0.8-4-3.4-4.8c-15.3-5.1-35.1-11-50.7-8.3c-39.4,6.9-46.8,29.7-47.9,39c-4,35.9-2.8,76.5-1.8,112.6
			c0.3,11.3,1.8,26.3,7.9,33.7c2.4,2.9,5.4,4.8,10.1,5.1c4.1,0.2,6.9-0.7,9.8-2.6c0.2-0.1,0.2-0.2,0.4-0.3c4.1-3.2,8.1-0.5,10.8,4.2
			c4.8,8.3,5.6,12.4-10.4,19.2c-10.7,4.5-28.9,1-37.5-6.5c-9.4-8.4-13.2-15.3-17.6-27.6c-5.7-15.6-9.1-37.3-11.1-53.7
			c-2.5-20.8-5.2-41.6-6.6-62.5c-1.5-23.2-1.8-46.4,1.5-69.5c2.8-19.9,8.1-38.8,18.4-56.2c6.1-10.4,20.6-38.6,31.4-54.7
			c11.5-16.1,11-15.3,27.6-31.4c15.4-15,37.6-25.1,59-29.1c17.9-3.4,31.4-5.4,52.1-2.3c5.6,0.8,31.6,2.4,36.8,3.1
			c11.5,1.5,19.3,4.6,28.1,11.5c6.4,5.1,14,5.9,21.3,7.5c42.9,9.2,76.4,15.1,120.4,14.6c27.8-0.4,55.3-2.9,82.9-6.1
			c30.2-3.5,61-5.1,90.1,5.6c14.5,5.4,34.5,16.1,48.2,27.8c16.4,14,26,19.7,37.6,41.2c11.1,20.6,18.4,47.5,22.2,69.8
			c2.1,12.3,4.2,35.2,5.4,48.3c3.1,36,3.9,72.8,2.4,109.1"/>
	</g>
</g>
</svg>
