<?xml version="1.0" encoding="utf-8"?>
<!-- Generator: Adobe Illustrator 26.5.0, SVG Export Plug-In . SVG Version: 6.00 Build 0)  -->
<svg version="1.1" id="Layer_1" xmlns="http://www.w3.org/2000/svg" xmlns:xlink="http://www.w3.org/1999/xlink" x="0px" y="0px"
	 viewBox="0 0 1080 1080" style="enable-background:new 0 0 1080 1080;" xml:space="preserve">
<style type="text/css">
	.st0{fill:#F4F4F4;}
	.st1{fill:#FEFEFE;}
	.st2{fill:#020202;}
</style>
<g id="Fox">
	<g id="ngKnND.tif">
		<g>
			<path class="st0" d="M777.8,693.1c-17.4-15.8-26.6-34.4-37.3-52.1c-13.5-22.3-26.4-45-43.2-65.2c-20.6-24.6-44.9-43.2-77.6-48
				c-11.7-1.7-23.5-2.6-35.4-4.6c-30.7-5.5-61.2-11.8-89.9-24.6c-19.7-8.9-34.2-22.2-38.1-44.7c-1.3-7.6-2.8-15.3-5.3-22.5
				c-2.4-7.2-1.9-11,6.4-14c9.5-3.3,9.9-7.3,1.9-13.6c-10-8-17-18.1-24.4-28.1c-6.9-9.1-13.8-20.7-25.7-21.9
				c-12-1.3-18-8.9-25.3-15.5c-6.6-6-12.7-12.4-19-18.9c-2.8-2.8-5.9-5-9.6-6.2c-4.8-1.5-7.7-0.6-8.7,5c-2.2,11,1.2,20.4,6.7,29.5
				c1.8,3,4.8,5.5,5.3,10.5c-3.2-1.7-5.1-3-7.3-3.7c-2.1-0.8-4.1-3.2-6.6-1.4c-2.6,1.9-1.7,4.7-1.3,7.4c0.8,5.4,4.6,8.7,8.1,12.4
				c13.4,14,21.7,30.2,17.2,49.9c-6.4,28.7-7.6,58.3-11.4,87.3c-4.6,34.8,0.8,67.8,20.7,96.9c18.5,27,27.9,57.4,37.9,87.7
				c3,9.1,4,18.6,4.8,28c0.5,7.7-1.9,17.7,3,22.3c4.9,4.6,14.8,0.6,22.4,1.5c6,0.6,7.3-1.7,7.2-7.3c-0.3-30.3,0.6-60.4-6.2-90.3
				c-4.8-20.5,7.7-31.3,28.4-26.3c18.9,4.6,37,2.8,55-4.1c14.9-5.6,29.3-12.7,45.4-16.7c0.6,1.9,1.3,3.8,1.7,5.9
				c7.1,33.8,22.9,62.1,51,82.9c3.1,2.3,3.6,5.1,3.6,8.5c-0.1,10.4-1.8,20.7-3.5,30.9c-2.8,17.3-1.8,18.4,15.9,16.6
				c3.2-0.4,4.5-1.2,4.9-4.6c2.4-19.4,7.8-38.2,9.5-58c8.6,1.8,17,4.1,25.3,5c9.6,1,14.8,6,17.4,14.9c3.6,12.2,7.3,24.4,9,37.1
				c0.3,2.2-0.1,4.6,3.1,5.5c12.9,3.7,18.1-0.5,16.7-13.9c-0.5-5.3-1.4-10.7-1.8-15.9c-1.5-17.6-4.9-34.3-20.8-45.2
				c-0.4-0.3-0.3-1.5-0.4-3.6C729.4,679.2,749.7,693.2,777.8,693.1z"/>
			<path class="st1" d="M297.7,824.5c0.6,0.6,1.2,1.2,1.8,1.8C298,826.7,297.5,826,297.7,824.5z"/>
			<path class="st1" d="M822.8,826.3c0.6-0.6,1.2-1.2,1.8-1.8C825,826,824.3,826.7,822.8,826.3z"/>
			<path class="st2" d="M777.8,693.1c-27.9,0.1-48.3-13.9-70.5-25c0.3,2.1,0,3.2,0.4,3.6c15.9,10.9,19.3,27.6,20.8,45.2
				c0.5,5.3,1.3,10.7,1.8,15.9c1.4,13.3-3.9,17.6-16.7,13.9c-3.3-0.9-2.8-3.3-3.1-5.5c-1.5-12.7-5.4-24.9-9-37.1
				c-2.6-8.9-7.7-13.9-17.4-14.9c-8.5-0.9-16.7-3.3-25.3-5c-1.7,19.8-7.1,38.6-9.5,58c-0.4,3.5-1.7,4.4-4.9,4.6
				c-17.7,1.8-18.9,0.8-15.9-16.6c1.7-10.3,3.5-20.5,3.5-30.9c0-3.3-0.4-6.2-3.6-8.5c-28.2-20.8-43.8-49.3-51-82.9
				c-0.4-1.9-1.2-3.9-1.7-5.9c-15.9,4-30.3,11-45.4,16.7c-18,6.8-36.1,8.7-55,4.1c-20.7-5-33,5.8-28.4,26.3
				c6.9,29.9,5.9,60.1,6.2,90.3c0,5.6-1.2,8.1-7.2,7.3c-7.6-0.8-17.6,3.1-22.4-1.5c-4.9-4.6-2.3-14.6-3-22.3c-0.6-9.5-1.7-19-4.8-28
				c-10-30.3-19.4-60.7-37.9-87.7c-19.9-29.1-25.3-62.2-20.7-96.9c3.9-29.1,5-58.5,11.4-87.3c4.4-19.9-3.9-35.9-17.2-49.9
				c-3.5-3.7-7.3-7.1-8.1-12.4c-0.4-2.7-1.4-5.5,1.3-7.4c2.4-1.8,4.4,0.6,6.6,1.4c2.2,0.8,4.1,2.1,7.3,3.7c-0.4-5-3.3-7.6-5.3-10.5
				c-5.7-9.1-8.9-18.6-6.7-29.5c1.2-5.8,4-6.5,8.7-5c3.7,1.2,6.8,3.3,9.6,6.2c6.3,6.4,12.3,12.8,19,18.9
				c7.3,6.7,13.4,14.2,25.3,15.5c12.1,1.3,18.9,12.7,25.7,21.9c7.5,10,14.5,20.1,24.4,28.1c8,6.3,7.6,10.1-1.9,13.6
				c-8.2,3-8.9,6.8-6.4,14c2.4,7.3,3.9,14.9,5.3,22.5c3.9,22.5,18.4,35.8,38.1,44.7c28.7,13,59.1,19.3,89.9,24.6
				c11.7,2.1,23.5,3,35.4,4.6c32.8,4.7,57.1,23.4,77.6,48c16.8,20.1,29.7,42.9,43.2,65.2C751.2,658.7,760.4,677.3,777.8,693.1z
				 M689.2,628.4c2.3,33,5.1,39,21.5,41.1C694.8,658.7,693.7,642.9,689.2,628.4z"/>
			<path class="st0" d="M689.2,628.4c4.5,14.5,5.7,30.3,21.5,41.1C694.3,667.4,691.5,661.2,689.2,628.4z"/>
		</g>
	</g>
</g>
</svg>
