<?xml version="1.0" encoding="utf-8"?>
<!-- Generator: Adobe Illustrator 26.5.0, SVG Export Plug-In . SVG Version: 6.00 Build 0)  -->
<svg version="1.1" id="Layer_1" xmlns="http://www.w3.org/2000/svg" xmlns:xlink="http://www.w3.org/1999/xlink" x="0px" y="0px"
	 viewBox="0 0 1080 1080" style="enable-background:new 0 0 1080 1080;" xml:space="preserve">
<style type="text/css">
	.st0{fill:#010101;}
</style>
<g id="Frog">
	<path class="st0" d="M368.3,535.2c-0.7-1.8-9.6-21.4,7.9-36.1c0.2-0.1,25.2-18.9,31.4-24.5c5.7-5.2,12.2-8.4,19.7-9.6
		c7.5-1.9,13.4,2.6,19.8,4.9c12.7,5.1,111.6,21.2,113,19.4c2.3-2.3,5.4-4.4,8.4-5.8c6.1-3.2,12.5-2,18.8-1.4
		c30.9,3.9,71.9,23.8,79.3,27.6c8.8,4.3,16.6,11.6,20.1,15.4c1.5,2.1,2.7,4.5,1.8,10.9c-2.4,6.2-12.6,13.4-31.5,19.1
		c-1.7,0.5-2.1,1.4-1.7,2.9c1.8,42.8-6.1,57.8-4.5,59.3c1.3,1.3,3.7,0.1,5.6-0.6c2.3-0.8,6-2.2,9.3-3.5c3-1.1,6.3-0.6,8.7,1.5
		c4.7,4,11.1,10.7,11,15.9c-6.6,27.6-78.5,81.5-78.5,81.6c-7.3,5.7-13.7,12.3-20,19c-0.2,0.2-4,5.2-6,7.4c-2.2,2.4-4.8,4.2-8.1,1.8
		c-3-2.2-3.5-4.9-1.2-8c3.4-4.7,6.7-9.3,10.3-14.3c1.7-2.4-0.2-5.6-3.1-5.3c-4.1,0.4-51.7,9.3-52.1,9.3c-5.1,1.2-6.7-2.2-5.9-9.6
		c0.2-3.7,20.5-3.9,27.3-5.5c3.9-0.9,5.4-6.5,1.4-6.5l-7.4-0.1c-4.4,0.1-2.8-8.4-2.7-8.8c0.7-1.9,1.9-2.9,4.3-2.5
		c1.7,0.3,14.3,1.1,17.4,1c1.1,0,2-6.9,1.9-7.9c0-2.2,0-21,6.9-33.9c2.2-4.3,0.5-6.9-2.7-9.2c-5.2-3.7-8.6-6.6-13.2-8.4
		c-2.9-1.1-5.6,2-4.2,4.7c6,11.2,11.3,26.7,10.2,37.2c-2.8,8.4-53,29.3-53.3,29.4c-7,1.1-13.3-1.5-19.4-4.5
		c-0.1-0.1-0.2-0.1-0.3-0.2c-3.7-2.3-11.9-6.2-12-6.3c-9.7-4.7-29.8-1-29.9-1c0,0-7.8,1.3-8.6,1.3c-1.3,0.1-2.5-0.5-3.1-1.6
		c-1.7-2.8-1.8-5.7-0.4-9c1.7-3.9,12-2.9,14.1-3.1c5.6-0.2,11.3-0.6,16.9-0.5c4.5,0,5.5-1.4,2.8-5c-4.8-8.5-24.3-23.7-26.6-25.5
		c-4.3-3.2-4.4-6-0.3-9.5c1.6-1.3,3.4-2.4,5.4-2.5c1-0.1,2,0.3,2.7,1.1c5.2,5.5,15.6,16.4,15.7,16.5c6.6,6.8,13.5,13,23.3,14.7
		c3.3,1,4.9-0.7,5.6-3.7c0.9-3.5,0.9-20.1,0.1-24.3c-0.5-5.8,11.7-6.6,11.3,0.4c-0.6,9.7,0.4,19.3,1.4,28.9c0.4,3.5,1.7,3.3,3.5,1.3
		c0.2-0.2,10.9-7.8,16.1-11c3.6-2.2-23.1-31-36.6-42.2c-0.2-0.1-0.3-0.3-0.4-0.4c-1.8-2.2-14.8-12.3-20.9-14.4
		c-6-2.9-36.9-14.3-42.4-17.1c-6.8-3.4-38.9-29.6-42.3-32.1C372,542.6,368.3,535.2,368.3,535.2z"/>
</g>
</svg>
