<?xml version="1.0" encoding="utf-8"?>
<!-- Generator: Adobe Illustrator 26.5.0, SVG Export Plug-In . SVG Version: 6.00 Build 0)  -->
<svg version="1.1" id="Layer_1" xmlns="http://www.w3.org/2000/svg" xmlns:xlink="http://www.w3.org/1999/xlink" x="0px" y="0px"
	 viewBox="0 0 1080 1080" style="enable-background:new 0 0 1080 1080;" xml:space="preserve">
<style type="text/css">
	.st0{fill:#010101;}
</style>
<g id="Gorilla">
	<g>
		<path class="st0" d="M822.6,747.8c0.6,0.2,29.4-69.3,25.2-96.6c-4.2-16.4-12.4-29.3-28.8-36.2c-10.8-4.5-18.6-12-22.1-23.5
			c-2.1-6.9-3.5-14-3.7-21.3c-0.4-15.5-5.6-29.4-11.8-43.2c-11.6-26-26.7-49.9-44.7-71.9c-12.1-14.7-25.5-28.1-42.5-37.4
			c-15-8.2-30.9-11.2-47.6-8.6c-13.1,2-25.4,7.2-38.1,11.2c-13.7,4.3-27,4.7-40.1-2.1c-8.6-4.5-15.2-11.4-21.4-18.4
			c-8.1-9-15-18.8-21.7-28.8c-9.6-14.1-22.9-22-39.3-25.3c-13.2-2.8-26.5-5.6-39.6-8.6c-5.8-1.3-10.9-4-14.7-9.3
			c-6.9-9.8-14.4-19.3-21.7-28.8c-8.1-10.5-16-21.2-25.2-30.9c-6.5-6.8-14.1-10.4-23.4-10.6c-18.4-0.4-34.8,6.3-50.9,14.2
			c-3.2,1.6-5.6,4.4-6.3,8.1c-0.6,3.2-1.1,6.5-1.2,9.8c-0.4,11.6-5.4,21.1-12.4,29.9c-4.3,5.3-9.5,9.8-13,15.8
			c-5,8.5-4.1,15.2,3.6,21.3c6.2,4.9,4.7,16.9-2.8,19.6c-7.4,2.7-10.4,8.6-10,15.2c0.2,2.5-0.6,4.4-2.2,6.2
			c-5.1,5.9-8.7,12.4-7.8,20.7c0.2,1.8-0.7,2.9-2.1,4.1c-3.8,2.9-5.6,6.6-3.8,11.7c1,3,2.6,5.8,4.6,8.3c7.5,9.7,16.6,17.7,25.1,26.5
			c8.1,8.3,17.1,12.1,28.9,10.2c7.8-1.2,11.5,0.2,11.4,10.1c0,0.4,0,0.8,0,1.1c-0.6,12.1-0.2,24.4-1.5,36.4
			c-1.2,11.3-2.2,22.5-8.2,32.8c-8.8,15.1-13.4,31.8-16,49c-2,12.4-2.8,139.6-2.8,139.6h90.2c0,0,4.7-116.7,16.1-129.1
			c0.3-3.7,15.7-19.5,19-21.7c2.1-1.4,4.4-0.6,5.1,1.8c0.9,2.7,0.9,5.5,0.7,8.3c-1.5,19.9,11.8,122.9,18,140.7h88
			c0.3-0.3-17.7-33.2-18.4-63.9c0.3-8.9,1.7-17.7,2.8-26.4c0.6-4.7,0.9-9.6,2.6-14.1c1.9-4.9,4.7-5.9,9-2.9c3.4,2.4,7,4.4,11,5.8
			c10.4,3.6,21.3,4.4,32.1,5.7c4.4,0.6,6.5,2.7,6.9,7.1c0.2,1.9-16.3,84.8-20,88.7h84.4c0,0,18.1-69.9,24-82.7
			c5.4-11.7,11.1-23.3,17.7-34.4c3.6-6.1,6.7-6.2,10.7-0.3c6.9,10.2,15.8,18.4,25,26.4c13.9,12,28.1,23.3,41.2,36.1
			c8.3,8.1-10.2,52.5-13,54.9L822.6,747.8L822.6,747.8z"/>
	</g>
</g>
</svg>
