<?xml version="1.0" encoding="utf-8"?>
<!-- Generator: Adobe Illustrator 26.5.0, SVG Export Plug-In . SVG Version: 6.00 Build 0)  -->
<svg version="1.1" id="Layer_1" xmlns="http://www.w3.org/2000/svg" xmlns:xlink="http://www.w3.org/1999/xlink" x="0px" y="0px"
	 viewBox="0 0 1080 1080" style="enable-background:new 0 0 1080 1080;" xml:space="preserve">
<g id="Greater_sage-grouse">
	<g id="OvHXuY.tif">
		<g>
			<path d="M556.9,453.5c0.5-0.5,1-1.1,1.6-1.6c0.5-0.9,2.2-1.9-0.1-2.7c0.5,0.1,1.3,0.6,1.6,0.4c1-0.7,0.3-1.5-0.2-2.1
				c0.4,0.3,0.7,0.5,1.1,0.8c0.1-0.2,0.2-0.5,0.3-0.7c-0.5,0-0.9,0-1.3-0.1c-0.4,0.6-0.8,1.2-1.1,1.9c-0.3,0.5-0.7,1.1-1,1.6
				c-0.5,0.4-1,0.8-1.5,1.3c-0.5,0.4-1.1,0.8-1.6,1.2c-5.4,3-9,8.7-16.2,11.7c3.7-8.2,9.9-13.5,13.1-21.7
				c-6.9,2.1-7.5,10.4-14.5,10.3c0.9-5.3,6.1-8.6,5.4-14.3c-4.5,0.9-4.6,6-8.6,7.6c-0.1-5.1,4.5-8.9,4-14.3
				c-4.2,3.9-5,9.5-10.1,13.6c1.4-6.1,2.5-11,3.7-16.6c-4.2,2.5-3.4,7.7-7.6,9.9c0-3.2,0-6.1,0-8.5c-3.9-0.5-1,7.6-5.4,4.5
				c-4.4-3.2-9.2-4-13.8-5c-11.1-2.5-21.9-1-31.4,5.9c-3.8,2.8-7.7,5-12.1,6.8c-8.9,3.6-14.4,10.4-17,20.3c5.2-1.1,9.7-2.2,14.2-2.9
				c12.3-2,20.8,5.7,17.7,17.9c-4.7,18.3-10.3,36.6-27.3,48.2c-0.5,0.3-0.7,1-1.1,1.6c1.7,1.5,4.3-0.5,6,1.8
				c-3.9,3.7-7.7,7.3-11.3,10.8c2,2.4,4.6,0,6.5,2.5c-4.3,3.7-8.6,7.5-13,11.3c3.1,1.7,6.7,0.4,9.5,2.7c-1.4,2.2-2.7,4.1-4,6
				c-10,15.7-18.5,32-19.5,51.1c-1.2,22.5,8,41.8,18.9,60.6c12.5,21.4,31.6,32.3,55.6,35.9c5.4,0.8,12.8-2.3,15.7,2.2
				c2.5,4.1,0.5,10.9,0.9,16.5c0.3,4.4-0.9,6.4-5.8,6.1c-6.3-0.4-12.7,0.2-19-0.2c-6.7-0.4-4.4,4.3-4.8,7.6c-0.4,3.7-0.1,6,4.9,5.9
				c17.8-0.3,35.6-0.3,53.4,0c4.2,0.1,5.1-1.4,5-5.2c-0.2-12.2,0-24.4-0.1-36.5c-0.1-3.6,1-5.4,4.5-6.7c9-3.3,17.6-3.5,26.4,1
				c21.8,11.1,44.3,20.9,68,27.6c4,1.1,8.3,3.3,11.9-0.4c3.6-3.7,2.2-8.1,0.8-12.5c-2.6-8.3-3.8-16.9-3.2-25.6
				c0.3-3.9,1-7.5,4.5-9.8c9.9-6.4,18.1-14.8,26.8-22.5c2.8-2.5,6.5-4.5,8.2-8.9c-7.3,0.1-12.5,6.1-20,5.3
				c8.5-12.8,18.8-23.6,28.3-35.1c-10.7,3.3-18,11.4-26.7,17.4c-0.2-0.2-0.4-0.4-0.6-0.6c-0.1-3.9,2-7.1,3.7-10.4
				c5.1-9.7,13.1-17,20.6-24.7c4.5-4.6,8.8-9.3,13.2-13.9c-0.5-0.5-0.9-1.1-1.4-1.6c-14.2,6.8-25.5,18.2-38.9,26.5
				c10.4-23.9,26.6-43.7,42.4-63.9c-6.6,1.7-11.2,6.2-15.9,10.3c-4.8,4.1-9.2,8.7-13.4,13.4c-4.1,4.6-7.8,9.6-11.7,14.4
				c9.7-27.7,23.5-53.1,36.7-78.8c-17.7,18.5-31,40.1-44.8,61.4c6.9-27.1,16.5-53.2,24.8-79.8c-11.8,19.8-20.9,41-31.6,61.4
				c8-29.7,15.2-59.5,21.9-89.4c-0.6-0.2-1.2-0.4-1.8-0.5c-10.6,24.8-21.1,49.6-31.7,74.4c3.1-20.5,7.2-40.5,8.6-61.1
				c-8.6,24-17.2,47.9-25.8,71.9c-0.7-0.2-1.4-0.4-2.1-0.6c0.8-7.2,2.8-14.3,1.2-21.8c-3.1,7.4-6.2,14.9-10,23.8
				c-2.9-7.3,1.6-12.9-1.3-19.3c-6,12-9.8,23.8-12.4,36.3c-1-0.7-1.5-0.8-1.7-1.2c-16.6-21.5-36.8-37.1-64.8-40.2
				c-1.5-0.2-3.1-0.4-2.3-2.4c4.8-11.5,3.5-25.2,12.6-35.2c0.4-0.4,1.1-1.1,1-1.2c-0.8-1-1.3-0.2-1.8,0.4c-1.9-0.2-3.2,3.2-4.8,1.5
				c-1.5-1.7-0.3-3.8,1.3-5.5c3.9-4.1,7.7-8.3,12.6-13.6c-7.1,1-10.7,6.1-17.2,7c4.1-8.1,11.2-12.4,15.3-19.1
				C556.4,454.3,556.7,453.9,556.9,453.5z"/>
			<path d="M341.3,373.7c-0.5,0.5-0.9,0.9-1.4,1.4C339.6,373.9,340.1,373.4,341.3,373.7z"/>
			<path d="M339.9,812.1c0.5,0.5,0.9,0.9,1.4,1.4C340.1,813.7,339.6,813.3,339.9,812.1z"/>
			<path d="M556,454.4c-4.1,6.6-11.2,10.9-15.3,19.1c6.5-0.9,10.1-5.9,17.2-7c-4.9,5.3-8.7,9.5-12.6,13.6c-1.6,1.7-2.8,3.9-1.3,5.5
				c1.6,1.7,2.9-1.7,4.8-1.5c0.3,0.3,0.5,0.5,0.8,0.8c-9.1,10-7.8,23.7-12.6,35.2c-0.8,2,0.8,2.2,2.3,2.4
				c28,3.2,48.2,18.8,64.8,40.2c0.3,0.3,0.7,0.5,1.7,1.2c2.6-12.5,6.5-24.2,12.4-36.3c2.9,6.3-1.6,11.9,1.3,19.3
				c3.7-8.9,6.9-16.4,10-23.8c1.6,7.5-0.4,14.6-1.2,21.8c0.7,0.2,1.4,0.4,2.1,0.6c8.6-24,17.2-47.9,25.8-71.9
				c-1.3,20.6-5.5,40.6-8.6,61.1c10.6-24.8,21.1-49.6,31.7-74.4c0.6,0.2,1.2,0.4,1.8,0.5c-6.8,29.9-14,59.7-21.9,89.4
				c10.7-20.4,19.7-41.5,31.6-61.4c-8.4,26.6-18,52.7-24.8,79.8c13.8-21.3,27.1-42.9,44.8-61.4c-13.3,25.7-27,51.1-36.7,78.8
				c3.9-4.8,7.6-9.8,11.7-14.4c4.2-4.7,8.6-9.3,13.4-13.4c4.8-4.1,9.3-8.7,15.9-10.3c-15.8,20.2-32,40-42.4,63.9
				c13.4-8.2,24.7-19.7,38.9-26.5c0.5,0.5,0.9,1.1,1.4,1.6c-4.4,4.6-8.8,9.4-13.2,13.9c-7.5,7.7-15.5,15-20.6,24.7
				c-1.7,3.3-3.8,6.5-3.7,10.4c-0.2,0.4-0.3,0.9-0.5,1.3c0.4-0.2,0.7-0.5,1.1-0.7c8.7-6,15.9-14.1,26.7-17.4
				c-9.5,11.5-19.7,22.4-28.3,35.1c7.5,0.8,12.7-5.2,20-5.3c-1.7,4.4-5.4,6.4-8.2,8.9c-8.7,7.7-16.9,16.2-26.8,22.5
				c-3.5,2.3-4.2,5.9-4.5,9.8c-0.7,8.8,0.6,17.3,3.2,25.6c1.4,4.4,2.8,8.8-0.8,12.5s-7.9,1.5-11.9,0.4c-23.7-6.7-46.1-16.4-68-27.6
				c-8.8-4.5-17.3-4.3-26.4-1c-3.5,1.3-4.5,3.1-4.5,6.7c0.2,12.2-0.1,24.4,0.1,36.5c0.1,3.8-0.8,5.3-5,5.2
				c-17.8-0.2-35.6-0.3-53.4,0c-5,0.1-5.4-2.2-4.9-5.9c0.4-3.3-1.9-7.9,4.8-7.6c6.3,0.4,12.7-0.2,19,0.2c4.8,0.3,6.1-1.7,5.8-6.1
				c-0.4-5.6,1.7-12.4-0.9-16.5c-2.8-4.6-10.3-1.5-15.7-2.2c-24-3.5-43.1-14.5-55.6-35.9c-11-18.8-20.1-38.1-18.9-60.6
				c1-19,9.5-35.4,19.5-51.1c1.3-2,2.6-3.9,4-6c-2.8-2.3-6.4-1.1-9.5-2.7c4.4-3.8,8.7-7.5,13-11.3c-1.9-2.5-4.5-0.1-6.5-2.5
				c3.7-3.5,7.4-7,11.3-10.8c-1.8-2.2-4.3-0.2-6-1.8c0.4-0.6,0.7-1.2,1.1-1.6c17-11.6,22.6-29.9,27.3-48.2
				c3.1-12.2-5.3-19.9-17.7-17.9c-4.6,0.7-9,1.9-14.2,2.9c2.6-9.9,8.2-16.7,17-20.3c4.4-1.8,8.3-4,12.1-6.8
				c9.5-6.9,20.3-8.4,31.4-5.9c4.6,1.1,9.4,1.9,13.8,5c4.4,3.2,1.5-4.9,5.4-4.5c0,2.4,0,5.3,0,8.5c4.2-2.2,3.4-7.4,7.6-9.9
				c-1.2,5.5-2.3,10.4-3.7,16.6c5.1-4.2,5.9-9.8,10.1-13.6c0.6,5.5-4,9.2-4,14.3c4-1.6,4.1-6.7,8.6-7.6c0.6,5.8-4.5,9.1-5.4,14.3
				c7,0.1,7.6-8.3,14.5-10.3c-3.1,8.2-9.3,13.5-13.1,21.7c7.2-3,10.8-8.7,16.2-11.7C555,453.7,555.5,454.1,556,454.4z M533.6,722.7
				L533.6,722.7c-0.1-3,0.1-6.1-0.2-9.1c-0.2-1.8,1.6-5.1-2.9-4.5c-3,0.4-5.4,0.6-5.2,4.7c0.3,6,0.2,12.1,0,18.1
				c-0.1,3.2,1.6,4,4.3,4c3,0.1,4.2-1.3,4-4.2C533.5,728.7,533.6,725.7,533.6,722.7z M671.7,613c0.2,0.3,0.3,0.6,0.5,0.9
				c0.2-0.2,0.5-0.3,0.4-0.5c-0.1-0.3-0.3-0.6-0.4-0.9C672,612.7,671.8,612.8,671.7,613z"/>
			<path d="M559.8,447.4c0.5,0,0.9,0,1.4,0.1c-0.1,0.2-0.2,0.5-0.3,0.7C560.5,447.9,560.1,447.7,559.8,447.4L559.8,447.4z"/>
			<path d="M559.7,447.4c0.5,0.7,1.3,1.4,0.2,2.1c-0.3,0.2-1-0.2-1.6-0.4l0.2,0.1C559,448.7,559.4,448,559.7,447.4
				C559.8,447.4,559.7,447.4,559.7,447.4z"/>
			<path d="M558.4,449.2c2.3,0.8,0.6,1.8,0.1,2.7c-0.3-0.3-0.5-0.7-0.8-1c0.3-0.5,0.7-1.1,1-1.6
				C558.6,449.3,558.4,449.2,558.4,449.2z"/>
			<path d="M558.4,451.9c-0.5,0.5-1,1.1-1.6,1.6c-0.3-0.4-0.6-0.9-0.8-1.3c0.5-0.4,1-0.8,1.5-1.3
				C557.9,451.2,558.2,451.5,558.4,451.9z"/>
			<path d="M556.9,453.5c-0.2,0.5-0.5,0.8-0.9,0.9c-0.5-0.3-1-0.7-1.5-1c0.5-0.4,1.1-0.8,1.6-1.2C556.3,452.6,556.6,453,556.9,453.5
				z"/>
			<path d="M548.7,484.2c0.5-0.7,1-1.5,1.8-0.4c0.1,0.1-0.7,0.8-1,1.2C549.3,484.7,549,484.5,548.7,484.2z"/>
			<path d="M533.6,722.7c0,3-0.1,6,0,9.1c0.1,2.9-1,4.3-4,4.2c-2.7-0.1-4.4-0.9-4.3-4c0.2-6,0.2-12.1,0-18.1
				c-0.2-4.1,2.2-4.3,5.2-4.7c4.5-0.6,2.7,2.7,2.9,4.5C533.7,716.7,533.5,719.7,533.6,722.7C533.5,722.7,533.5,722.7,533.6,722.7z"
				/>
			<path d="M671.7,613c0.2-0.2,0.3-0.3,0.5-0.5c0.2,0.3,0.4,0.6,0.4,0.9c0,0.1-0.3,0.3-0.4,0.5C672,613.6,671.8,613.3,671.7,613z"/>
			<path d="M675.9,636.7c-0.4,0.2-0.7,0.5-1.1,0.7c0.2-0.4,0.3-0.9,0.5-1.3C675.5,636.3,675.7,636.5,675.9,636.7z"/>
		</g>
	</g>
</g>
</svg>
