<?xml version="1.0" encoding="utf-8"?>
<!-- Generator: Adobe Illustrator 26.5.0, SVG Export Plug-In . SVG Version: 6.00 Build 0)  -->
<svg version="1.1" id="Layer_1" xmlns="http://www.w3.org/2000/svg" xmlns:xlink="http://www.w3.org/1999/xlink" x="0px" y="0px"
	 viewBox="0 0 1080 1080" style="enable-background:new 0 0 1080 1080;" xml:space="preserve">
<style type="text/css">
	.st0{fill:#010101;}
	.st1{fill:none;stroke:#010101;stroke-width:21;stroke-linecap:round;stroke-miterlimit:10;}
</style>
<g>
	<path class="st0" d="M764.6,681c-1.2,12.3-9.7,54.8-14.4,66.8h-33c2.3-0.3,11.1-40.4,11.1-46.1c1.2-20.7-6.1-29.3-12.1-35
		c-17.4-16.4-30-49.1-25.4-39c13.3,38.7,20,41.4,7.3,68.7c-3.5,7.5-17.5,44.5-22,51.4h-31.3c-1.4,0,12.7-34,16.6-49.4
		c6-18.7,0.4-33.8-2-37.7c-10.8-17.4-30-94.4-54.2-88c-9.5,4.7-15.9,10.2-25.9,21.6c-8.7,8.7-31.5,30.7-73.4,28
		c-13.3,0-28.7-3.3-40.3-4.6c-2.9-1.1-5.9,3.3-8.7,18.2c-9.9,48.6-85.4,102.6-88.2,112h-35.2c3.5-9.7,82.8-82.1,69.2-139.6
		c-2.7-11.2-5.1-47.3-67.3-104.7c-6.2-4.5-12.5-8.3-20.8-7.1c-5.5,0.8-10.1,3.7-14.8,6.5c-0.1,0.1-0.2,0.1-0.3,0.2
		c-6.8,4.3-7.7,4.2-12.9-1.8c-5.1-5.9-10-11.7-15-17.7c-1.7-1.9-3.2-3.8-5.6-5c-2.7-1.3-3.3-5.5-1.7-9.3c2.8-7.1,7.3-13.1,12.2-18.8
		c1.2-1.4,2.2-2.8,2.4-4.6c1.2-11.9,8-20.4,17.6-26.8c2.9-1.9,4.9-4.1,5.9-7.3c1.2-3.5,3.7-6.1,6.3-8.3c4.1-3.5,8-1.8,12.3,0.1
		c11,5.2,22.6,4.7,34.2,2.3c6.7-1.4,13.1-4.1,19.8-5.6c3.2-0.7,5.3,1.3,5.1,4.5c-0.2,2.4-1.6,4.4-2.3,6.5c-1,2.8-0.3,4.7,1.7,6.5
		c5.1,4.9,11.3,7.9,17.8,10.7c3.7,1.6,80.2,32.4,90.2,35.3c11.5,3.3,23.4,5.4,35.2,6.9c9.4,1.2,19,2.2,28.5,2.6
		c34.4,1.4,68.7,0.2,103.1,0.1c13.1,0,26,1.6,38.2,6c16.7,6,29.8,16.7,39,32c5.9,9.8,9.6,20.5,12.2,31.7c3.1,13.3,4.1,26.8,3.9,43.8
		C743.4,638.3,763.6,660.2,764.6,681z"/>
	<path class="st1" d="M854.9,617c2.7,17.4-4.7,34-27.4,34c-67.7,0-21.4-180.2-174.9-166.9"/>
</g>
<path class="st0" d="M469.1,585.6c-17.4-16.4,10.7,16,15.4,26c13.3,38.7,15.3,57.4,2.6,84.8c-3.5,7.5-17.5,44.5-22,51.4h-31.3
	c-1.4,0,12.7-34,16.6-49.4c6-18.7,0.4-33.8-2-37.7c-10.8-17.4-19.8-100.3-43.9-93.8"/>
</svg>
