<?xml version="1.0" encoding="utf-8"?>
<!-- Generator: Adobe Illustrator 26.5.0, SVG Export Plug-In . SVG Version: 6.00 Build 0)  -->
<svg version="1.1" id="Layer_1" xmlns="http://www.w3.org/2000/svg" xmlns:xlink="http://www.w3.org/1999/xlink" x="0px" y="0px"
	 viewBox="0 0 1080 1080" style="enable-background:new 0 0 1080 1080;" xml:space="preserve">
<style type="text/css">
	.st0{fill:#010101;}
</style>
<g id="Leopard">
	<path class="st0" d="M783.3,676.1c-1.3,13.3-10.5,58.8-15.5,71.7h-35.4c2.4-0.3,12-43.4,12-49.4c1.3-22.2-6.6-31.4-13-37.6
		c-18.6-17.6-32.2-52.7-27.2-41.9c14.3,41.6,21.5,44.4,7.9,73.8c-3.7,8.1-18.8,47.8-23.6,55.2h-33.6c-1.5,0,13.7-36.5,17.8-53
		c6.4-20.1,0.4-36.2-2.1-40.5c-11.6-18.6-32.2-101.4-58.2-94.5c-10.2,5.1-17,11-27.8,23.1c-9.3,9.3-33.8,33-78.8,30.1
		c-14.3,0-30.8-3.6-43.3-4.9c-3.1-1.2-6.3,3.5-9.3,19.5c-10.5,52.2-34.2,110.1-37.3,120.2h-37.8c3.7-10.5,31.5-88.1,17-149.9
		c-2.9-12-5.5-50.7-72.2-112.3c-6.7-4.9-13.5-9-22.3-7.7c-5.9,0.9-10.8,3.9-15.8,6.9c-0.1,0.1-0.2,0.1-0.3,0.2
		c-7.3,4.6-8.3,4.5-13.8-1.9c-5.4-6.3-10.7-12.6-16.1-19c-1.8-2.1-3.4-4.1-6-5.4c-2.9-1.4-3.5-5.9-1.9-10c3-7.7,7.9-14,13.1-20.1
		c1.3-1.5,2.4-3,2.6-4.9c1.3-12.8,8.6-21.8,18.8-28.7c3.1-2,5.2-4.4,6.3-7.8c1.3-3.7,3.9-6.5,6.8-9c4.4-3.8,8.6-1.9,13.2,0.1
		c11.8,5.6,24.2,5.1,36.7,2.4c7.2-1.5,14-4.4,21.3-6c3.4-0.8,5.7,1.4,5.5,4.9c-0.2,2.6-1.7,4.7-2.5,7c-1.1,3-0.3,5,1.8,7
		c5.5,5.2,12.2,8.5,19.1,11.5c3.9,1.7,86,34.8,96.8,37.9c12.4,3.5,25.1,5.8,37.8,7.4c10.1,1.3,20.3,2.4,30.6,2.8
		c36.9,1.5,73.7,0.2,110.6,0.1c14,0,27.9,1.7,41,6.4c17.9,6.4,32,17.9,41.8,34.3c6.4,10.5,10.3,22,13.1,34c3.3,14.3,4.4,28.7,4.2,47
		C760.7,630.3,782.3,653.7,783.3,676.1z"/>
	<path class="st0" d="M739.9,482.7c10,14.3,38.7,51.6,50.1,64.5c7.2,7.2,26.3,24.4,33,25.8c7.7,1.6,14.5-4.4,13.2-12.2
		c-0.4-2.5-2-4.5-3.2-6.7c-0.9-1.6-1.7-3.2-0.9-5c1-2.1,3.2-2.3,5-1.9c4.4,0.8,9.6,8.7,10.2,13.7c0.5,4.5,0.2,9.6-2.1,13.6
		c-2.3,3.9-6.4,7.9-10,9.3c-12.3,6.1-23.6-0.7-32.2-5.7c-21.5-12.9-41.8-21.8-47.3-27.2"/>
</g>
</svg>
