<?xml version="1.0" encoding="utf-8"?>
<!-- Generator: Adobe Illustrator 26.5.0, SVG Export Plug-In . SVG Version: 6.00 Build 0)  -->
<svg version="1.1" id="Layer_1" xmlns="http://www.w3.org/2000/svg" xmlns:xlink="http://www.w3.org/1999/xlink" x="0px" y="0px"
	 viewBox="0 0 1080 1080" style="enable-background:new 0 0 1080 1080;" xml:space="preserve">
<g id="Macaw">
	<g id="_x39_1uMlm.tif">
		<g>
			<path d="M663.9,906.8c-2.3-5.7-4.7-10.7-6.7-15.9c-4.9-12.4-9.7-24.9-14.4-37.3c-0.3-1-1.2-2.2,0-3c1-0.7,2.2-0.2,3,0.8
				c0.7,0.7,1.2,1.2,1.7,1.8c8.4,8.4,16.7,16.7,26.5,23.6c1,0.7,2,2.5,3.5,1.2c1.2-1-0.2-2.3-0.7-3.3c-6.2-11.6-10.5-23.9-15.1-36.2
				c-15.4-42.7-26.6-86.4-32.3-131.4c-0.8-6.7-1.3-13.6-2-20.4c-0.2-1-0.5-2,0.7-2.5c1.5-0.7,1.7,0.8,2.3,1.7c1.7,2.5,3.5,5,5.4,7.4
				c4.4,5,10.5,6.5,16.6,4c2.2-0.8,4.4-2,6-3.5c2.3-2,3.9-1.5,5.4,0.8c2.3,3.7,4.7,7.5,7.5,11c5.9,7.4,14.9,8.2,22.8,2.7
				c7.4-5.2,9.5-14.4,4.7-22.1c-4.2-6.9-8.7-13.6-13.2-20.3c-11.4-17.4-23.6-34.5-33.5-52.9c-5.9-11-8.7-23.4-13.1-35.2
				c-14.9-41.4-33-81.4-55.6-119.2c-11.6-19.1-23.9-37.5-41.7-51.7c-3-2.3-5-5.7-6.2-9.2c-5.7-16.2-15.4-30-26.6-42.5
				c-20.6-22.9-45.2-39.3-76.5-44c-19.4-2.8-37.5-0.3-53.4,12.1c-9.5,7.4-15.4,17.9-21.9,27.6c-12.1,17.6-10.9,36.8-2,55.8
				c4.2,8.9,10.9,15.4,20.1,19.9c-0.3-6-0.7-11.4,1-16.7c0.8-2.5,2-3.3,4.7-2c4,2.3,8.5,3.2,13.2,3.5c4,0.3,8.2,0.7,12.7,1
				c-1,2.3-2,4-2.2,6c-0.2,2-0.8,3.9-1.2,5.7c-4.5,27.6,4.7,49.7,27.3,65.8c5.9,4.2,9.9,8.9,12.4,15.1c7.2,17.7,17.4,33.7,29.3,48.4
				c6.2,7.5,13.2,14.1,22.4,18.2c11.2,5,22.1,10.4,33.1,15.7c7.5,3.7,14.9,7.9,22.1,12.6c4.5,2.8,6.9,6.5,5.4,12.2
				c-1.2,4.7-1.2,9.7-1.2,14.6c0,8.4,0,16.7-0.2,25.1c-0.5,44.4,4.5,88.1,18.6,130.4c16.2,48.4,42.4,89.9,83.4,121.2
				C658.5,904.6,660.4,906.4,663.9,906.8z"/>
			<path d="M663.9,906.8c-3.5-0.3-5.4-2.2-7.4-3.9c-41-31.3-67.1-72.8-83.4-121.2c-14.2-42.4-19.1-86.1-18.6-130.4
				c0.2-8.4,0.2-16.7,0.2-25.1c0-4.9,0-9.9,1.2-14.6c1.5-5.7-0.8-9.4-5.4-12.2c-7.2-4.5-14.6-8.7-22.1-12.6
				c-10.9-5.4-21.9-10.7-33.1-15.7c-9.2-4-16.2-10.5-22.4-18.2c-12.1-14.7-22.1-30.6-29.3-48.4c-2.5-6.2-6.5-10.9-12.4-15.1
				c-22.6-16.1-31.8-38.3-27.3-65.8c0.3-1.8,1-3.9,1.2-5.7c0.2-2,1-3.7,2.2-6c-4.5-0.3-8.7-0.7-12.7-1c-4.7-0.3-9.2-1.2-13.2-3.5
				c-2.5-1.5-3.7-0.7-4.7,2c-1.8,5.4-1.5,10.7-1,16.7c-9.2-4.5-16.1-11.2-20.1-19.9c-8.9-18.8-10-38.2,2-55.8
				c6.5-9.5,12.4-20.3,21.9-27.6c15.9-12.2,34.2-14.9,53.4-12.1c31.3,4.7,55.9,21.1,76.5,44c11.2,12.6,20.9,26.3,26.6,42.5
				c1.2,3.5,3.3,6.9,6.2,9.2c17.7,14.2,30.1,32.6,41.7,51.7c22.8,37.8,40.7,77.7,55.6,119.2c4.2,11.7,7,24.1,13.1,35.2
				c9.9,18.4,22.1,35.5,33.5,52.9c4.4,6.7,8.9,13.4,13.2,20.3c4.7,7.7,2.7,16.9-4.7,22.1c-7.9,5.5-16.9,4.7-22.8-2.7
				c-2.8-3.5-5.2-7.4-7.5-11c-1.5-2.3-3-2.8-5.4-0.8c-1.8,1.5-4,2.7-6,3.5c-6.2,2.5-12.4,1-16.6-4c-2-2.3-3.7-4.9-5.4-7.4
				c-0.7-0.8-0.7-2.3-2.3-1.7c-1.2,0.5-0.8,1.7-0.7,2.5c0.7,6.9,1.2,13.6,2,20.4c5.7,45,16.9,88.7,32.3,131.4
				c4.4,12.2,8.9,24.6,15.1,36.2c0.5,1,1.8,2.3,0.7,3.3c-1.3,1.3-2.5-0.5-3.5-1.2c-9.7-6.9-18.1-15.2-26.5-23.6
				c-0.7-0.7-1.2-1.2-1.7-1.8c-0.8-0.8-2-1.5-3-0.8c-1.2,0.8-0.3,2,0,3c4.9,12.4,9.5,24.9,14.4,37.3
				C659.2,896.1,661.5,901.1,663.9,906.8z"/>
		</g>
	</g>
</g>
</svg>
