<?xml version="1.0" encoding="utf-8"?>
<!-- Generator: Adobe Illustrator 26.5.0, SVG Export Plug-In . SVG Version: 6.00 Build 0)  -->
<svg version="1.1" id="Layer_1" xmlns="http://www.w3.org/2000/svg" xmlns:xlink="http://www.w3.org/1999/xlink" x="0px" y="0px"
	 viewBox="0 0 1080 1080" style="enable-background:new 0 0 1080 1080;" xml:space="preserve">
<style type="text/css">
	.st0{fill:#010101;}
</style>
<g id="Monkey">
	<g>
		<path class="st0" d="M786.4,684c-2-0.8-10.8-7-12.8-7.9c-19.4-9.2-52.9-33.3-61.2-43.1c-8.3-18.9-4.5-43.1-3.3-56.2
			c1.7-20.1,9.3-41.3,9.3-56.4c0-40.1-22.7-46.9-37.2-61.1c-3.4-4.2,6.1-19.1,20.9-40.5c9-13,16.6-26.8,19.7-42.5
			c3.7-18.5,3.4-37.2-0.1-55.7c-5.7-28.5-22.9-53.6-52.5-66.2c-17.5-7.5-64.3-9.9-87.8,27.8c-18.1,28.8-5.2,68.1,27.3,74.9
			c20.3,4.5,24.1-1.7,23.4-6c-0.8-4.5-6.2-5.5-15.1-9.1c-11.3-4.5-18.9-11.3-20.6-21.9c-1.4-8.6-2.2-17.1,6.5-29.5
			c8.6-12.2,18.6-16,30-17.4c12.1-1.5,24.9,0.8,38.3,13.2c8.2,8.9,13.8,15.6,19.1,29.9c5.3,17.4,3.6,32.7,0.8,49.1
			c-2.4,13.8-11,27.8-19.7,38.6c-12.1,10.6-22.2,22.3-58.7,36.4c-23.7,9.1-48.7,13.7-73.3,19.4c-23.3,5.4-46.7,10.2-69.6,17.1
			c-10,2.9-20.1,5.3-30.5,4.8c-6.9-0.2-13.9-1.2-18.5-6.8c-3.4-4.1-7-8-10-12.5c-7.6-11.8-18.3-19.6-31.8-23.5
			c-10.3-3-20.7-2-31.1,0c-11.7,2.3-22.8,6.2-32.8,13c-7.9,5.4-12.4,12.6-12,22.5c0.2,5.4,0.1,10.7-0.5,16.1c-0.2,2.1-0.7,4-2,5.7
			c-3.2,3.9-5.1,8.5-6.4,13.5c-1.4,5.4-0.8,10.4,3.6,14.3c1.4,1.2,2.7,2.5,3.9,3.9c6.3,7,14.1,9.5,23.3,8.5
			c7.9-0.8,15.7-1.7,23.7-0.2c10.8,1.9,18.5,6.2,22.2,18c7.9,25.5,16,51,23,76.7c4.8,17.8,4.6,35.7,0.7,53.4
			c-3.6,15.9-15.6,46.9-22.6,63.6h30.4c11.3-21.9,19.9-43.3,27.1-67.1c3.9-13.1,4-64.4,4.8-65c1.1,0.8,28.6,23.2,37.6,44.1
			c13.6,20,15.1,88.1,14.8,87.7H520c-0.3,0.4-4.4-82.2-13.5-112.6c-4.2-14.1-9.1-28-14.4-41.9c-0.3-0.8-0.6-1.7-1-2.9
			c15,3.5,40.7,12.5,76.1-4.8c13.5-5.7,36.1-24.3,35.7-23.4c-7.3,16.7-12.6,34-16.2,51.9c-3.3,16.6-0.5,32.4,5.6,47.8
			c8,20.3,19.2,45.7,31.8,63.4h34.4c-5.3-12.2-9.9-24.6-14.7-37c-6.7-17-15.2-35.5-11.4-48.4c1.5-16.6,21.8-41.7,31-49.1
			c0.7-0.5,0.8,49.1,18.1,65c17.6,17,71.3,43.6,78.9,47L786.4,684z"/>
	</g>
</g>
</svg>
