<?xml version="1.0" encoding="utf-8"?>
<!-- Generator: Adobe Illustrator 26.5.0, SVG Export Plug-In . SVG Version: 6.00 Build 0)  -->
<svg version="1.1" id="Layer_1" xmlns="http://www.w3.org/2000/svg" xmlns:xlink="http://www.w3.org/1999/xlink" x="0px" y="0px"
	 viewBox="0 0 1080 1080" style="enable-background:new 0 0 1080 1080;" xml:space="preserve">
<style type="text/css">
	.st0{fill:#FEFEFE;}
	.st1{fill:#020202;}
</style>
<path class="st0" d="M348,254.2c-0.3,0.3-0.5,0.5-0.9,0.9C347,254.4,347.4,254,348,254.2z"/>
<path class="st0" d="M732.8,255.1c-0.3-0.3-0.5-0.5-0.9-0.9C732.8,254,733,254.4,732.8,255.1z"/>
<path class="st1" d="M671.5,281.5c0.9-2.9,0.3-4.2-2.9-4c-8.1,0.2-16.4,0.3-24.6,0c-4.8-0.3-6.2,1.4-6.7,6.1
	c-0.7,6.6-2.9,13-10,14.7c-10.9,2.8-17.3,10.4-22.8,19c-3.5,5.5-8,9.7-13.7,12.8c-10,5.5-20.6,10.2-31.5,13.5
	c-16.1,4.7-30.4,12.6-43.8,22.7c-1.9,1.4-3.1,1.6-4.7-0.3c-1.4-1.9-2.6-3.6-1.6-6.2c1-3.1,0.3-5.9-1.7-8.5
	c-7.4-8.3-14.2-17-20.4-26.1c-9.3-13.5-22.3-18.3-37.9-17.8c-13.1,0.5-25.8,4-33.7,15.2c-7.1,9.9-14.2,19.4-22.5,28.2
	c-2.2,2.2-3.3,5.2-2.1,8.3c0.7,2.1,0.2,3.5-0.7,5.2c-4.5,8.5-7.6,17.6-9,27.3c-0.3,2.4-0.9,5,0.7,7.1c4.5,5.7,3.5,12.1,2.8,18.3
	c-0.9,8-5,14.9-7.6,22.3c-5.7,16.1-9.9,32.5-7.3,49.8c1.4,8.8,2.2,17.6,1,26.6c-2.2,15.1-2.1,30.3-4.5,45.3c-0.7,4.8,1.4,9.3,1.6,14
	c0.2,7.1,1.2,14,2.9,20.9c4.3,19,14.4,33,34.4,37.9c8.3,2.1,16.8,2.2,25.3,1.7c11.6-0.7,23.2-2.1,34.9-1.4
	c6.9,0.3,11.9,3.6,15.1,9.9c2.9,5.5,4.8,11.4,5.9,17.5c3.8,22.8,13.3,42.9,28.4,60.4c4.8,5.7,10.7,9.3,18,10.7
	c2.8,0.5,6.4-1.2,8.1,1.2c1.6,2.2-0.5,5.5-0.9,8.3c-0.5,4.3,0.9,5.7,5.4,5.5c3.6-0.3,7.4-0.5,11.1-0.7c1.7,0.2,3.5,0.2,5.2,0.2
	c10.7,0,11.1,0,12.1-10.6c2.4-23.4,5-46.5,6.4-70.1c0.3-4.7,1.7-7.8,6.1-10c2.6-1.2,4.8-3.1,7.1-5c5.9-5,10.9-10.7,12.1-18.7
	c1.9-11.9-4.2-22.3-16.4-27.2c-4.2-1.7-5-4-3.8-8c1-2.9,1.7-6.1,2.6-9.2c5.4-17.8,13.5-34.4,20.4-51.6c2.2-5.7,5.5-10.6,10.2-14.7
	c8.7-7.8,12.3-17.5,10.6-29.1c-1-6.9-1-13.8,0-20.6c5.4-34.1,12.1-67.8,19.9-101.4c0.7-3.1,2.1-4.5,5.2-5.2
	c6.4-1.7,10.6-6.1,10.9-12.8c0.3-8.1,0.2-16.4,0.2-24.6c0-1.6-0.3-2.9-1.4-4c-2.4-2.9-2.4-6.2-1.4-9.7
	C665.4,303.9,668.4,292.6,671.5,281.5z M554.8,633.2c-0.7,10.2-1.2,20.4-1.9,30.6c-0.2,3.3-2.2,3.6-4.3,1.9c-5.2-4.3-9-9.9-8.5-16.6
	c0.7-9.7,2.2-19,2.4-29.1c4,3.3,7.4,6.2,11.1,9.2C554.8,630.3,554.9,631.7,554.8,633.2z M572.9,534.1c-4-3.8-7.3-7.6-11.6-10.4
	c3.8-3.8,10.2-5.5,18-4.8C577.2,523.9,575.2,528.9,572.9,534.1z M614.8,388.4c-4.2,21.6-8.5,43.4-12.6,65c-0.7,3.6-1.4,6.4-6.2,5
	c-2.8-0.7-5.2,1.2-7.3,3.1c-2.6,2.4-5,5.2-7.6,7.6c-6.6,5.9-14,8.7-23,6.4c-4-1-8-1.4-11.9-1.2c-1.7,0.1-3.2-0.3-4.2-1.2
	c-1-0.9-1.6-2.2-1.6-4c-0.7-17.6,0.9-34.8,9.2-50.7c7.8-14.9,18.3-26.8,33.9-34.1c13.7-6.4,26.1-14.9,37.2-26
	C618.6,368.6,616.7,378.6,614.8,388.4z"/>
</svg>
