<?xml version="1.0" encoding="utf-8"?>
<!-- Generator: Adobe Illustrator 26.5.0, SVG Export Plug-In . SVG Version: 6.00 Build 0)  -->
<svg version="1.1" id="Layer_1" xmlns="http://www.w3.org/2000/svg" xmlns:xlink="http://www.w3.org/1999/xlink" x="0px" y="0px"
	 viewBox="0 0 1080 1080" style="enable-background:new 0 0 1080 1080;" xml:space="preserve">
<g id="Panda">
	<g>
		<path d="M447.3,640.3c0.3,0.5,0.5,1,0.7,1.4c8,35.5,21.9,68.7,35.3,102.1c1.2,2.9,2.7,4,5.8,4c18.6-0.2,37-0.2,55.5,0
			c2.8,0,3.5-0.9,3.5-3.6c-0.2-12.3-1.2-24.4-2.2-36.8c-1.3-17.9-5-35.4-6-53.2c-0.5-8.3-1.5-16.6-0.5-25
			c1.5-11.3,15.4-26.2,28.2-22.7c9.1,2.6,15.6,8.3,20.1,16.8c3.5,6.6,5.8,13.7,7.5,21c6.1,27,6.5,54.3,4.5,81.8
			c-0.2,1.9-1,3.8,2.3,3.8c18.9-0.2,37.8,0,56.7,0.2c2.7,0,3.6-1,4.3-3.5c2.3-7.5,4.6-14.7,7.1-22c8.8-25.8,14.6-52.2,15.2-79.8
			c0.8-32.9-4.6-65-13.1-96.4c-5.1-18.7-6.3-36.9-2.2-55.8c2.7-12,3-24.1,0.3-36.1c-2.5-11.1-5.5-22.2-12.9-30.9
			c-2-2.3-1.8-3.1,0-5.4c7.3-8.5,12.8-18.4,13.8-29.8c1.7-22.9-23.9-43.2-45.1-36.2c-11.9,4-18.2,13.4-21,25.5
			c-1.7,6.8-1.7,6.8-7.8,4.7c-20.7-6.9-41.6-8.5-62.6-2.4c-3,0.9-6.3,3.5-8.9,2.1c-2.7-1.4-2.7-5.7-4-8.7c-8.8-18.9-32-29.7-50-12
			c-9.3,9-13.6,20.5-12.8,33.8c0.5,7.5,3.5,13.9,8.9,18.9c5.6,5.2,5.5,5,2.3,12.1c-2.7,6.1-6.6,8.5-13.3,8.8
			c-48.1,2.6-82.9,30.5-95.8,78c-8.8,32.1-8,64.7-2.7,96.9c3.5,21.2,6.8,42.1,6,63.6c-0.7,19.4,2.2,38.3,6.6,57
			c0.5,2.4,1.3,3.3,3.8,3.3c17.9-0.2,36-0.2,53.9-0.2c1.8,0,2.7-0.3,3-2.4c3.8-19.6,7.8-39.2,11.8-58.8
			C444,649.7,444.6,644.8,447.3,640.3z"/>
		<path d="M447.3,640.3c-2.7,4.5-3.3,9.5-4.3,14.4c-4,19.6-8,39.2-11.8,58.8c-0.3,2.1-1.2,2.4-3,2.4c-17.9,0-36,0-53.9,0.2
			c-2.5,0-3.1-0.9-3.8-3.3c-4.3-18.7-7.3-37.6-6.6-57c0.8-21.5-2.5-42.5-6-63.6c-5.3-32.4-6-65,2.7-96.9
			c12.9-47.5,47.7-75.6,95.8-78c6.5-0.3,10.4-2.8,13.3-8.8c3.1-7.1,3.3-6.9-2.3-12.1c-5.5-5-8.5-11.4-8.9-18.9
			c-0.8-13.4,3.5-24.8,12.8-33.8c18.1-17.7,41.3-6.9,50,12c1.3,2.9,1.3,7.3,4,8.7c2.7,1.4,6-1.4,8.9-2.1c21.2-6.1,42.1-4.5,62.6,2.4
			c6.1,2.1,6.3,2.1,7.8-4.7c3-12.1,9.1-21.5,21-25.5c21.2-6.9,46.9,13.2,45.1,36.2c-0.8,11.4-6.3,21.3-13.8,29.8
			c-1.8,2.1-1.8,3.1,0,5.4c7.6,8.7,10.4,19.8,12.9,30.9c2.8,12,2.3,24.1-0.3,36.1c-4.1,18.9-3,37.1,2.2,55.8
			c8.6,31.4,13.9,63.5,13.1,96.4c-0.7,27.6-6.6,53.9-15.2,79.8c-2.5,7.3-4.8,14.7-7.1,22c-0.7,2.3-1.7,3.5-4.3,3.5
			c-18.9-0.2-37.8-0.3-56.7-0.2c-3.5,0-2.5-1.9-2.3-3.8c2-27.4,1.7-54.8-4.5-81.8c-1.7-7.3-4.1-14.4-7.5-21
			c-4.5-8.5-10.9-14.2-20.1-16.8c-12.8-3.6-26.7,11.4-28.2,22.7c-1.2,8.5,0,16.6,0.5,25c1,17.9,4.6,35.4,6,53.2
			c0.8,12.3,2,24.4,2.2,36.8c0,2.8-0.7,3.6-3.5,3.6c-18.6-0.2-37-0.2-55.5,0c-3.1,0-4.6-1-5.8-4c-13.4-33.5-27.3-66.6-35.3-102.1
			C447.8,641.2,447.6,640.8,447.3,640.3z"/>
	</g>
</g>
</svg>
