<?xml version="1.0" encoding="utf-8"?>
<!-- Generator: Adobe Illustrator 26.5.0, SVG Export Plug-In . SVG Version: 6.00 Build 0)  -->
<svg version="1.1" id="Layer_1" xmlns="http://www.w3.org/2000/svg" xmlns:xlink="http://www.w3.org/1999/xlink" x="0px" y="0px"
	 viewBox="0 0 1080 1080" style="enable-background:new 0 0 1080 1080;" xml:space="preserve">
<style type="text/css">
	.st0{fill:none;}
	.st1{fill:#010101;}
</style>
<g id="Pangolin">
	<line class="st0" x1="316.7" y1="354.4" x2="315.7" y2="354.4"/>
	<path class="st1" d="M405.6,671.8c15.8-1.4,30.4,9,35.4,25c2.3,7.4,3.9,35.1,5.9,42.6h74.6c0.2-9.3,0-42.3,0.1-51.6
		c0.1-9.5,6-16,14.5-16.2c8.7-0.2,15.3,6.5,15.4,16c0.1,9.3,0,42.5,0,51.8h74.8c2.5-9.6,4.9-40,7.2-49.7c1-4.1,2.9-7.1,7.4-7.6
		c4.4-0.5,7,2.2,8.8,5.9c6.8,13.9,8.7,28.9,8.3,44.1c-0.9,39.6-3.3,55.1-14.3,70.1c-19.5,24.7-51.7,3.7-74-10.7
		c-7.9-5.1-18.8-1-20.8,8.2c-0.1,0.3-0.1,0.6-0.2,0.9c-1.2,7.9,1,11.6,12,18.6c0.7,0.4,91,59,181-6c30.8-29.1,34-46,44-78
		c0.7-4,7-37,4.1-67.8c-9.3-43.4-32.1-78.6-64.9-107.6c-37.2-32.9-80.9-52.9-129.4-62.1c-71.2-13.4-139.1-4-202.8,31.4
		c-10.1,5.6-29.2,20.8-44.8,33.7c-32.8,27.1-54.7,65.6-60,107.8c-0.1,1.2-0.3,2.4-0.4,3.6c-1.1,10.1,5.6,17.2,15.8,17.3
		c6.6,0.1,13.3,0,19.9,0c4.3,0,8.6-0.1,12.9,0c12,0.4,23.4-1.9,34.2-7.3C370.2,684.3,401.5,672.2,405.6,671.8z"/>
</g>
</svg>
