<?xml version="1.0" encoding="utf-8"?>
<!-- Generator: Adobe Illustrator 26.5.0, SVG Export Plug-In . SVG Version: 6.00 Build 0)  -->
<svg version="1.1" id="Layer_1" xmlns="http://www.w3.org/2000/svg" xmlns:xlink="http://www.w3.org/1999/xlink" x="0px" y="0px"
	 viewBox="0 0 1080 1080" style="enable-background:new 0 0 1080 1080;" xml:space="preserve">
<style type="text/css">
	.st0{fill:#010101;}
</style>
<g id="Rhino">
	<g>
		<path class="st0" d="M841.6,544.8c-3.2,21.4-9.8,83.4-6.7,93.7c1.1,3.6,2.1,7.2,3,10.7c1.3,4.1-0.5,8.7-5.8,10.7
			c-5.5,2.2-7,6.1-8.1,11.3c-3.7,17.3-16.9,61.8-26.8,76.6h-42.7c3.4-14.4,11.4-72.7,10.7-87.4c-0.6-12.8-4.1-24.3-11.5-34.6
			c-2.6-3.7-5.5-6.8-9.3-9.5c-10.3-7.3-15.4-18.3-19.8-29.6c-1.1-2.8-1.9-5.6-2.7-8.5c-1.1-3.9-2.7-4.7-6.5-3.3
			c-2.7,1.1-4.9,2.8-7.2,4.5c-6.9,5.5-13.2,11.7-18.7,18.5c-5.3,6.4-46.4,39.1-102.1,33.5c-22.5-1.5-66-12.2-68.9-12.5
			c-6.3-0.8-10.2,1.6-12.6,7.4c-4.5,10.7-4.6,22.2-2.6,33c8.3,36.8-5.1,88-4.7,88.3h-36.5c1-9.1-2.3-65.9-6.9-73.8
			c-2.7-9.9-3.9-14.8-3.3-22.6c0.2-1.7,0.4-3.4,0.6-5.9c-5.4,2.3-5.4,6.1-7.3,10.5c-2.4,5.5-3.4,11.3-2.7,17
			c0.6,5.5-1.1,9.4-4.9,12.6c-3,2.6-4,5.4-4.1,9.5c-0.1,9.7-10.6,52.6-10.4,52.8h-42.1c0,0,11.6-41.8,11.6-67.8
			c0.4-3-4.2-86.8-7-86.7c-3.8-14.4-13.8-3.6-18.1,6.2c-8.1,17.9-8.5,38.4-41.2,60c-19.3,14.7-52.3,25.5-75.7,31.5
			c-4.6,1.2-10.2,3.3-13.8-0.2c-5.7-5.5-9.8-12.6-8-21.4c0.4-1.6,0.4-3.3,0.9-4.8c2.4-7.3-1.3-12.8-6.4-16.7
			c-22.4-16.6-34.7-38.7-38.1-66.1c-0.4-3.8-0.4-7.7-0.3-11.6c0-1.6,0.5-3.8,2.1-4c2-0.4,2.2,2,2.8,3.5c0.4,1.3,0.7,2.6,1.1,3.8
			c6.3,22.6,27.4,27.4,43.1,25.3c1.3-0.2,2.1-0.4,2.3-2.1c0.6-5.9,4-11.1,3.8-17.5c-0.3-7.9,5.4-12.2,13.6-11.9
			c3.8,0.1,6.4-1.3,8.9-3.8c9.8-10.7,14.6-23.7,17.9-37.4c2.4-9.7,3.4-19.6,4.2-29.5c0.1-1.5,0.6-3.1-2-3.6c-11-1.8-19.7-8-28-14.9
			c-5.3-4.4-10.2-9.1-14.6-14.5c-2-2.3-4.9-4.9-3-8.2c1.8-3,5.4-1.9,8.2-1.4c16.6,2.8,32.1,8.6,47.8,14.2c3.9,1.4,8,2.7,11.6,4.5
			c4.9,2.4,9,1.1,12.8-1.9c6.4-4.9,11.1-11.3,14.9-18.3c18.8-34.7,48.8-52.6,87.1-58.1c8.4-1.2,16.5-3.9,25-4.7
			c15.6-1.5,30.7,0.4,45,6.7c11.1,4.9,22.7,7.1,34.6,7.7c15.4,0.9,30.7,0.2,45.9-1.8c17.3-2.2,34.5-5.1,51.3-9.7
			c7.6-2.1,14.9-4.9,22.9-5.7c84-21.1,148.3,24.1,160.7,35.8c10,9.6,17.9,20.7,23.7,33.3C828.9,456.3,848.4,500.2,841.6,544.8z"/>
	</g>
	<path class="st0" d="M692.4,557.1c3-0.1,8.1,119.6,7.6,122.5c0,26-12.8,67.8-12.8,67.8h46.5c-0.3-0.2,11.3-43.1,11.5-52.8
		c0.1-4.1,1.2-6.9,4.5-9.5c4.2-3.2,6.1-7.2,5.4-12.6c-0.8-5.7,0.4-11.6,3-17c2.1-4.4,4.8-96.5,10.7-98.7"/>
	<path class="st0" d="M827.8,424.2c0,8.1-10.2,25.1-18.3,25.1c-8.1,0-14.8-6.6-14.8-14.8s-1-14.8,7.2-14.8
		C810,419.7,827.8,416,827.8,424.2z"/>
</g>
</svg>
