<?xml version="1.0" encoding="utf-8"?>
<!-- Generator: Adobe Illustrator 26.5.0, SVG Export Plug-In . SVG Version: 6.00 Build 0)  -->
<svg version="1.1" id="Layer_1" xmlns="http://www.w3.org/2000/svg" xmlns:xlink="http://www.w3.org/1999/xlink" x="0px" y="0px"
	 viewBox="0 0 1080 1080" style="enable-background:new 0 0 1080 1080;" xml:space="preserve">
<path d="M552,723c-3.7-0.2-7.6,0.5-11.1-1.1c-1.9-0.9-3.3-1.9-3.4-4.2c-0.1-2.3,1.2-3.5,3.1-4.4c4.4-2.3,9.3-2.4,13.9-2.6
	c9.6-0.3,18.8-1.8,27.4-5.8c5.8-2.6,11-6.3,16.3-9.7c1.2-0.8,2.5-2.3,3.7-1.2c1.5,1.2,0.8,3.1,0,4.7c-3.4,7.2-9.3,12.1-16,15.9
	C575.6,720.6,564.2,723.3,552,723z"/>
<path d="M515.3,391.2c-5.8,8.1-9.5,17.1-11.1,26.9c-3.7,17.2-4.5,34.7-5,52.3c-0.1,2.2,0.7,4.6-0.8,6.7c0.5,7.1,0,14.1-1.2,21.1
	c-1.6,9.5-3.7,18.8-6.7,27.8l0-0.9c2.9-8.8,5-17.9,6.5-27.2c1.2-7,1.7-14,1.2-21.1c-2.8-20.4-6.7-40.8-12.4-60.6c0,0,0,0,0,0
	c6.1,0.5,12.1,1.2,18.3,1.9c1.7-9.8,5.3-18.8,11.1-26.9c0.1-0.2,0.3-0.4,0.4-0.5C515.5,390.9,515.4,391,515.3,391.2z"/>
<path d="M596,569.1c-0.3,2.8-1.3,4.6-4,5.5c-3.6,3.2-8.3,3.8-12.8,4.7c-12.5,2.5-24.9,2.7-36.8-2.8c-1.2-0.4-2.2-1.3-3.3-2
	c-5.7-4.3-6.3-6.2-4.2-13.3c2.6-9,6.4-17.5,7.7-26.8c1-6.7,1.8-13.3,1.9-20c0.3-20.4,0.1-40.9,0.2-61.3c0.1-15.4,3.1-30.2,6.5-45.1
	c0-0.3,0.4-0.6,0.9-1.6c0.7,5.2,0.7,9.9,0.9,14.5c0.8,20.4,6.7,39.3,15.4,57.5c11.2,23.3,21.3,47,26.2,72.6
	C595.8,557,596.5,563,596,569.1z"/>
<path d="M466.2,371.8c-5.8-8.4-12.7-15.7-22.5-19.4c-10.2-3.9-28.1-2-37.4,5.6c-2.6,1.2-4.9,3.2-6.9,5.8l-2.8,3.5
	c-5.2-2.1-10.5-4.2-15.7-6.5c-4.3-1.9-8.8-3-13.5-3.2c-17.7-0.8-25.9,8.1-23.8,25.8c0.7,5.6,2.3,7.3,7.8,7.9
	c20.2,2.4,40.3,6.4,60.3,10.3l6.3,1.3c7,1.5,13.9,3.2,20.7,5.5c0.6,12,1.3,24,1.3,36c9.8,2.1,19,5.7,27.6,10.9
	c7.3,4.5,14.1,9.7,18.6,17.2c0.6,1,1.2,2,1.7,3c-0.5-0.9-1-1.8-1.6-2.7c-4.5-7.5-11.3-12.8-18.6-17.2c-8.5-5.2-17.8-8.8-27.6-10.9
	c-23.9-3.8-46.5-0.3-66.9,13.2c-17.9,11.8-26.7,29.1-29.9,50c-4.9,32.2-0.1,63.4,8.5,94.3c9.8,34.9,26.5,66.2,49.9,93.8
	c111.3,98.6,225.7,44.9,265.4-7.2c23.6-34,25.5-40.1,30.5-53.6c6.3-17.1,8.4-35.5,6.1-53.6c-1.9-14.8-5.3-26.1-6.2-28.3l-0.2,0.1
	c-0.4-2.4-0.9-4.8-1.5-7.2c-6.1-22.1-10.4-44.6-15-67c-2.1-10.7-4.6-21.2-5.9-32c-13-1.8-26-3.6-39.1-5.3c0.8,20.3,1,40.7,2.4,61
	c-2-1.5-2.8-3.8-4-5.9c-11.8-19.9-23.5-39.8-33.5-60.7c-0.6-1.2-1-2.4-1.5-3.6c0,0,0-0.1-0.1-0.1c8.1,2.1,16.2,4.3,24.4,6.3
	c4.1,1,8.3,2,12.4,2.9c13,1.8,26,3.6,39,5.4c9.4,1.3,18.6,2.8,27.9,3.7c5,0.7,5.5,0,5.9-5.1c0.6-8.8,0.3-17.5-1.3-26.2
	c-0.6-2.6-2-4.3-4.6-5.1c-4-1.2-8.1-2.5-12.2-3c0,0,0,0,0,0c-2.8-3.6-4.3-8.4-9.6-9.3l-40.6,2.1c-13,0.1-26.1,2.3-39-1.4
	c-0.5-0.9-0.6-1.8-0.7-2.9c-1.1-16.2-15.5-24.7-30.3-17.8c-3.2,1.4-5.2,1.5-8.2-0.5c-10.4-6.9-28.9-5.4-39.7,2.5
	c-1.3,1-2.4,2.4-4.2,2.6c-0.1,1.1-0.7,1.9-1.4,2.6c0.6-0.7,1.2-1.5,1.3-2.5c-5.2-0.6-10.5-1.2-15.7-1.8c-10.2-1.3-20.4-1.4-30.4-3.2
	L466.2,371.8z M408.2,372.5C408.2,372.5,408.2,372.5,408.2,372.5C408.2,372.5,408.2,372.5,408.2,372.5
	C408.2,372.5,408.2,372.5,408.2,372.5C408.2,372.5,408.2,372.5,408.2,372.5z"/>
<path d="M681,402c-3.1-8.1-9.3-12-17.7-12.5c-10.7-0.2-18.4,4.6-22.7,14.6"/>
</svg>
