<?xml version="1.0" encoding="utf-8"?>
<!-- Generator: Adobe Illustrator 26.5.0, SVG Export Plug-In . SVG Version: 6.00 Build 0)  -->
<svg version="1.1" id="Layer_1" xmlns="http://www.w3.org/2000/svg" xmlns:xlink="http://www.w3.org/1999/xlink" x="0px" y="0px"
	 viewBox="0 0 1080 1080" style="enable-background:new 0 0 1080 1080;" xml:space="preserve">
<g id="Tiger">
	<g id="zVd1ES.tif">
		<g>
			<path d="M483.8,747c7.5,0,15.1,0,22.5,0c5,0,5.2,0,4.9-5.2c-1.5-32.9-3.1-65.7-10.1-98c-1-5-0.3-5.8,4.7-6.2
				c11.8-1.2,23.5-2.7,35.1-4.7c23.5-4,46.6-10.1,69.1-18.1c1.8-0.6,2.8-1,3.1,1.6c1.9,16.9,4.3,33.7,5.9,50.6
				c2.5,25.5,4.4,51.1,6.5,76.7c0.3,3.1,1.5,3.4,4,3.4c14.5-0.1,29.2-0.1,43.7,0c3.3,0,3.7-1,3.8-4c0.3-20,0.7-40,1.2-59.9
				c0.4-20.1,1-40.4,4-60.4c0.1-1.3,0-3.1,1.3-3.4c1.3-0.4,2.4,1,3.3,2.1c7.4,8,12.7,17.3,17.3,26.9c5.8,12,8,25.3,10.5,38.3
				c3.6,18.6,5,37.6,5.9,56.5c0.1,3,0.9,4,4,3.8c12.3-0.1,24.7-0.1,37,0c2.8,0,3.6-0.7,3.4-3.4c-0.1-10.4,0-20.7-0.1-31.1
				c-0.3-16.7-0.3-33.4,5.2-49.4c3.1-9.3,2.1-16.3-3.8-24.4C746,611,738,579.4,739.2,545.3c0-1.9,0.3-3.8,2.5-4.3
				c2.4-0.4,3.3,1.5,3.8,3.3c2.2,6.7,4.4,13.3,5.9,20.1c2.2,10.7,6.1,20.7,11.4,30.2c4.6,8.3,9.9,15.8,16.3,22.8
				c11.1,12.6,25.3,13.9,40.7,11c13-2.5,24.1-17.3,23.1-30.3c-0.4-5-3-8.6-7.7-10.4c-4.6-1.8-9.3-0.3-12.7,3.3
				c-2.2,2.4-3.3,5.2-4.1,8.1c-0.7,2.5-2.1,4.9-5,5.3c-7.4,0.9-14.2-0.3-19.1-6.8c-10.5-13.9-17-29.4-21-46.3
				c-5.8-24.4-17.3-46.2-36-62.7c-30.6-27.2-67-34.6-106.8-26.2c-11.2,2.4-21.9,7.1-33.4,8.9c-37.7,5.9-75.5,9.3-113.8,8.4
				c-20.9-0.6-41-4.1-59.8-14.2c-8.9-4.7-18.2-8.4-27.8-11.8c-12.7-4.4-25.5-9.3-39.4-8.9c-4.6,0.1-7.7-0.9-9.9-5.2
				c-2.2-4-5.9-6.5-10.8-5.3c-5.8,1.3-11.4,4-15.1,8.6c-5,6.2-11.4,9.5-18.9,11.1c-15.5,3.4-26.8,12.1-34.3,26.2
				c-8.9,16.4-14.8,33.9-20.9,51.5c-1.3,3.8-0.6,7.7,1.8,11c8.1,11.1,17,21.5,28.7,28.9c9.5,5.9,17.3,4.4,25.2-3.6
				c12.7-13,28.3-19.4,46.6-18.3c12,0.6,18.8,6.4,22.3,17.9c2.1,6.8,2.5,13.8,2.5,20.9c-0.1,15.1-3.4,29.7-6.2,44.5
				c-7,36.4-13.8,73-20.6,109.5c-0.7,3.8,0.1,5.2,4,5.2c17.3,0,34.5,0,51.8,0c1.9,0,2.5-0.7,3.1-2.4c4.3-14.6,8.6-29.2,12.7-43.9
				c3.6-13,8.1-25.7,14.6-37.6c0.9-1.5,1.6-3.1,3.8-2.8c2.2,0.3,2.7,2.1,3,3.7c1.8,7.3,3.7,14.5,5.2,21.9
				c3.8,18.9,7.5,37.9,11.2,56.8c0.6,3.1,1.5,4.4,5,4.3C468.4,746.7,476.1,747,483.8,747z"/>
			<path d="M483.8,747c-7.7,0-15.2-0.3-22.9,0.1c-3.6,0.1-4.4-1.2-5-4.3c-3.6-18.9-7.4-37.9-11.2-56.8c-1.5-7.4-3.4-14.6-5.2-21.9
				c-0.4-1.6-0.7-3.6-3-3.7c-2.2-0.3-3,1.3-3.8,2.8c-6.7,11.8-11.1,24.6-14.6,37.6c-4,14.6-8.4,29.3-12.7,43.9
				c-0.4,1.6-1.2,2.4-3.1,2.4c-17.3-0.1-34.5,0-51.8,0c-3.8,0-4.7-1.3-4-5.2c6.8-36.5,13.6-73,20.6-109.5
				c2.8-14.8,6.1-29.4,6.2-44.5c0-7.1-0.3-14.1-2.5-20.9c-3.6-11.5-10.5-17.3-22.3-17.9c-18.2-1-33.9,5.3-46.6,18.3
				c-7.8,8-15.7,9.5-25.2,3.6c-11.7-7.4-20.6-17.8-28.7-28.9c-2.4-3.3-3.1-7-1.8-11c6.1-17.5,12.1-35.1,20.9-51.5
				c7.5-13.9,18.8-22.8,34.3-26.2c7.5-1.6,13.9-4.9,18.9-11.1c3.8-4.7,9.3-7.3,15.1-8.6c4.9-1.2,8.6,1.3,10.8,5.3
				c2.2,4.3,5.5,5.3,9.9,5.2c13.9-0.4,26.5,4.4,39.4,8.9c9.5,3.4,18.9,7.1,27.8,11.8c18.6,10.1,38.8,13.6,59.8,14.2
				c38.2,1,76.1-2.5,113.8-8.4c11.5-1.8,22.2-6.5,33.4-8.9c39.8-8.3,76.2-0.9,106.8,26.2c18.6,16.6,30.3,38.3,36,62.7
				c4,16.9,10.5,32.4,21,46.3c5,6.5,11.7,7.7,19.1,6.8c3-0.3,4.3-2.7,5-5.3c0.9-3,2.1-5.8,4.1-8.1c3.4-3.7,8.3-5,12.7-3.3
				c4.7,1.8,7.3,5.2,7.7,10.4c1,13.2-10.1,27.8-23.1,30.3c-15.2,3-29.4,1.6-40.7-11c-6.2-7-11.7-14.6-16.3-22.8
				c-5.2-9.5-9.2-19.5-11.4-30.2c-1.5-6.8-3.7-13.5-5.9-20.1c-0.6-1.8-1.3-3.7-3.8-3.3c-2.4,0.4-2.5,2.2-2.5,4.3
				c-1.2,34.2,6.8,65.8,26.9,93.5c5.9,8.3,7,15.1,3.8,24.4c-5.3,16-5.3,32.7-5.2,49.4c0.1,10.4-0.1,20.7,0.1,31.1
				c0,2.8-0.6,3.6-3.4,3.4c-12.3-0.1-24.7-0.1-37,0c-3.1,0-3.8-1-4-3.8c-0.9-18.9-2.4-37.9-5.9-56.5c-2.5-13-4.7-26.2-10.5-38.3
				c-4.6-9.6-9.9-18.9-17.3-26.9c-0.9-1-1.9-2.4-3.3-2.1c-1.5,0.4-1.2,2.2-1.3,3.4c-3,20-3.4,40.2-4,60.4c-0.4,20-0.9,40-1.2,59.9
				c0,3-0.6,4-3.8,4c-14.5-0.1-29.2-0.1-43.7,0c-2.7,0-3.7-0.3-4-3.4c-1.9-25.6-4-51.1-6.5-76.7c-1.6-16.9-4-33.7-5.9-50.6
				c-0.3-2.5-1.3-2.2-3.1-1.6c-22.5,8-45.6,14.1-69.1,18.1c-11.7,2.1-23.4,3.6-35.1,4.7c-5,0.4-5.8,1.3-4.7,6.2
				c7,32.3,8.6,65.1,10.1,98c0.3,5.2,0,5.2-4.9,5.2C498.7,747,491.3,747,483.8,747z"/>
		</g>
	</g>
</g>
</svg>
