<?xml version="1.0" encoding="utf-8"?>
<!-- Generator: Adobe Illustrator 26.5.0, SVG Export Plug-In . SVG Version: 6.00 Build 0)  -->
<svg version="1.1" id="Layer_1" xmlns="http://www.w3.org/2000/svg" xmlns:xlink="http://www.w3.org/1999/xlink" x="0px" y="0px"
	 viewBox="0 0 1080 69.3" style="enable-background:new 0 0 1080 69.3;" xml:space="preserve">
<style type="text/css">
	.st0{fill:#1E1E1E;}
	.st1{fill:#16391D;}
	.st2{fill:#509329;}
	.st3{fill:#B4D0A1;}
</style>
<path class="st0" d="M0,0h17.5v69.3H0V0z M94.4,0h17.5v69.3H94.4V0z M188.4,0h17.5v69.3h-17.5V0z M282.8,0h17.5v69.3h-17.5V0z
	 M377.5,0H395v69.3h-17.5V0z M471.9,0h17.5v69.3h-17.5V0z M565.9,0h17.5v69.3h-17.5V0z M660.3,0h17.5v69.3h-17.5V0z M754.8,0h17.5
	v69.3h-17.5V0z M849.2,0h17.5v69.3h-17.5V0z M943.2,0h17.5v69.3h-17.5V0z M1038.8,0h17.5v69.3h-17.5V0z"/>
<path class="st1" d="M23.6,0h17.5v69.3H23.6V0z M118,0h17.5v69.3H118V0z M212,0h17.5v69.3H212V0z M306.4,0h17.5v69.3h-17.5V0z
	 M401.1,0h17.5v69.3h-17.5V0z M495.5,0H513v69.3h-17.5V0z M589.5,0H607v69.3h-17.5V0z M683.9,0h17.5v69.3h-17.5V0z M778.4,0h17.5
	v69.3h-17.5V0z M872.8,0h17.5v69.3h-17.5V0z M966.8,0h17.5v69.3h-17.5V0z M1062.4,0h17.5v69.3h-17.5V0z"/>
<path class="st2" d="M46.5,0H64v69.3H46.5V0z M140.9,0h17.5v69.3h-17.5V0z M234.9,0h17.5v69.3h-17.5V0z M329.3,0h17.5v69.3h-17.5V0z
	 M424,0h17.5v69.3H424V0z M518.4,0h17.5v69.3h-17.5V0z M612.4,0h17.5v69.3h-17.5V0z M706.8,0h17.5v69.3h-17.5V0z M801.3,0h17.5v69.3
	h-17.5V0z M895.7,0h17.5v69.3h-17.5V0z M989.7,0h17.5v69.3h-17.5V0z"/>
<path class="st3" d="M70.1,0h17.5v69.3H70.1V0z M164.5,0H182v69.3h-17.5V0z M258.5,0H276v69.3h-17.5V0z M352.9,0h17.5v69.3h-17.5V0z
	 M447.6,0h17.5v69.3h-17.5V0z M542,0h17.5v69.3H542V0z M636,0h17.5v69.3H636V0z M730.4,0h17.5v69.3h-17.5V0z M824.9,0h17.5v69.3
	h-17.5V0z M919.3,0h17.5v69.3h-17.5V0z M1013.3,0h17.5v69.3h-17.5V0z"/>
</svg>
