<?xml version="1.0" encoding="utf-8"?>
<!-- Generator: Adobe Illustrator 26.5.0, SVG Export Plug-In . SVG Version: 6.00 Build 0)  -->
<svg version="1.1" id="Layer_1" xmlns="http://www.w3.org/2000/svg" xmlns:xlink="http://www.w3.org/1999/xlink" x="0px" y="0px"
	 viewBox="0 0 1080 69.3" style="enable-background:new 0 0 1080 69.3;" xml:space="preserve">
<style type="text/css">
	.st0{fill:#15391E;}
	.st1{fill:#B3D09F;}
</style>
<path class="st0" d="M0,34.8h17.5v34.6H0V34.8z M23.6,34.8h17.5v34.6H23.6V34.8z M47.4,34.8h17.5v34.6H47.4V34.8z M71.2,34.8h17.5
	v34.6H71.2V34.8z M94.8,34.8h17.5v34.6H94.8V34.8z M118,34.8h17.5v34.6H118V34.8z M141.7,34.8h17.5v34.6h-17.5V34.8z M165.2,34.8
	h17.5v34.6h-17.5V34.8z M188.8,34.8h17.5v34.6h-17.5V34.8z M212.1,34.8h17.5v34.6h-17.5V34.8z M235.7,34.8h17.5v34.6h-17.5V34.8z
	 M259.4,34.8h17.5v34.6h-17.5V34.8z M283.2,34.8h17.5v34.6h-17.5V34.8z M306.5,34.8H324v34.6h-17.5V34.8z M330.1,34.8h17.5v34.6
	h-17.5V34.8z M354,34.8h17.5v34.6H354V34.8z M377.9,34.8h17.5v34.6h-17.5V34.8z M401.2,34.8h17.5v34.6h-17.5V34.8z M424.8,34.8h17.5
	v34.6h-17.5V34.8z M448.5,34.8H466v34.6h-17.5V34.8z M472.3,34.8h17.5v34.6h-17.5V34.8z M495.6,34.8h17.5v34.6h-17.5V34.8z
	 M519.2,34.8h17.5v34.6h-17.5V34.8z M542.8,34.8h17.5v34.6h-17.5V34.8z M566.3,34.8h17.5v34.6h-17.5V34.8z M589.6,34.8h17.5v34.6
	h-17.5V34.8z M613.2,34.8h17.5v34.6h-17.5V34.8z M637,34.8h17.5v34.6H637V34.8z M660.7,34.8h17.5v34.6h-17.5V34.8z M683.5,34.8H701
	v34.6h-17.5V34.8z M707.6,34.8h17.5v34.6h-17.5V34.8z M731.4,34.8h17.5v34.6h-17.5V34.8z M755.1,34.8h17.5v34.6h-17.5V34.8z
	 M778.4,34.8h17.5v34.6h-17.5V34.8z M802,34.8h17.5v34.6H802V34.8z M825.3,34.8h17.5v34.6h-17.5V34.8z M849.6,34.8h17.5v34.6h-17.5
	V34.8z M872.8,34.8h17.5v34.6h-17.5V34.8z M896.5,34.8H914v34.6h-17.5V34.8z M919.7,34.8h17.5v34.6h-17.5V34.8z M943.6,34.8h17.5
	v34.6h-17.5V34.8z M967.4,34.8h17.5v34.6h-17.5V34.8z M991.7,34.8h17.5v34.6h-17.5V34.8z M1016,34.8h17.5v34.6H1016V34.8z
	 M1039.2,34.8h17.5v34.6h-17.5V34.8z M1062.9,34.8h17.5v34.6h-17.5V34.8z"/>
<path class="st1" d="M0,0.1h17.5v34.6H0V0.1z M23.6,0.1h17.5v34.6H23.6V0.1z M47.4,0.1h17.5v34.6H47.4V0.1z M71.2,0.1h17.5v34.6
	H71.2V0.1z M94.8,0.1h17.5v34.6H94.8V0.1z M118,0.1h17.5v34.6H118V0.1z M141.7,0.1h17.5v34.6h-17.5V0.1z M165.2,0.1h17.5v34.6h-17.5
	V0.1z M188.8,0.1h17.5v34.6h-17.5V0.1z M212.1,0.1h17.5v34.6h-17.5V0.1z M235.7,0.1h17.5v34.6h-17.5V0.1z M259.4,0.1h17.5v34.6
	h-17.5V0.1z M283.2,0.1h17.5v34.6h-17.5V0.1z M306.5,0.1H324v34.6h-17.5V0.1z M330.1,0.1h17.5v34.6h-17.5V0.1z M354,0.1h17.5v34.6
	H354V0.1z M377.9,0.1h17.5v34.6h-17.5V0.1z M401.2,0.1h17.5v34.6h-17.5V0.1z M424.8,0.1h17.5v34.6h-17.5V0.1z M448.5,0.1H466v34.6
	h-17.5V0.1z M472.3,0.1h17.5v34.6h-17.5V0.1z M495.6,0.1h17.5v34.6h-17.5V0.1z M519.2,0.1h17.5v34.6h-17.5V0.1z M542.8,0.1h17.5
	v34.6h-17.5V0.1z M566.3,0.1h17.5v34.6h-17.5V0.1z M589.6,0.1h17.5v34.6h-17.5V0.1z M613.2,0.1h17.5v34.6h-17.5V0.1z M637,0.1h17.5
	v34.6H637V0.1z M660.7,0.1h17.5v34.6h-17.5V0.1z M683.5,0.1H701v34.6h-17.5V0.1z M707.6,0.1h17.5v34.6h-17.5V0.1z M731.4,0.1h17.5
	v34.6h-17.5V0.1z M755.1,0.1h17.5v34.6h-17.5V0.1z M778.4,0.1h17.5v34.6h-17.5V0.1z M802,0.1h17.5v34.6H802V0.1z M825.3,0.1h17.5
	v34.6h-17.5V0.1z M849.6,0.1h17.5v34.6h-17.5V0.1z M872.8,0.1h17.5v34.6h-17.5V0.1z M896.5,0.1H914v34.6h-17.5V0.1z M919.7,0.1h17.5
	v34.6h-17.5V0.1z M943.6,0.1h17.5v34.6h-17.5V0.1z M967.4,0.1h17.5v34.6h-17.5V0.1z M991.7,0.1h17.5v34.6h-17.5V0.1z M1016,0.1h17.5
	v34.6H1016V0.1z M1039.2,0.1h17.5v34.6h-17.5V0.1z M1062.9,0.1h17.5v34.6h-17.5V0.1z"/>
</svg>
