<?xml version="1.0" encoding="utf-8"?>
<!-- Generator: Adobe Illustrator 26.5.0, SVG Export Plug-In . SVG Version: 6.00 Build 0)  -->
<svg version="1.1" id="Layer_1" xmlns="http://www.w3.org/2000/svg" xmlns:xlink="http://www.w3.org/1999/xlink" x="0px" y="0px"
	 viewBox="0 0 1080 69.3" style="enable-background:new 0 0 1080 69.3;" xml:space="preserve">
<style type="text/css">
	.st0{fill:#E7BD40;}
	.st1{fill:#4F9329;}
	.st2{fill:#15391E;}
	.st3{fill:#DD792D;}
</style>
<path class="st0" d="M47.4,0.1h17.5v69.3H47.4V0.1z M141.7,0.1h17.5v69.3h-17.5V0.1z M235.7,0.1h17.5v69.3h-17.5V0.1z M330.1,0.1
	h17.5v69.3h-17.5V0.1z M424.8,0.1h17.5v69.3h-17.5V0.1z M519.2,0.1h17.5v69.3h-17.5V0.1z M613.2,0.1h17.5v69.3h-17.5V0.1z
	 M707.6,0.1h17.5v69.3h-17.5V0.1z M802,0.1h17.5v69.3H802V0.1z M896.5,0.1H914v69.3h-17.5V0.1z M991.7,0.1h17.5v69.3h-17.5V0.1z"/>
<path class="st1" d="M71.2,0.1h17.5v69.3H71.2V0.1z M165.2,0.1h17.5v69.3h-17.5V0.1z M259.4,0.1h17.5v69.3h-17.5V0.1z M354,0.1h17.5
	v69.3H354V0.1z M448.5,0.1H466v69.3h-17.5V0.1z M542.8,0.1h17.5v69.3h-17.5V0.1z M637,0.1h17.5v69.3H637V0.1z M731.4,0.1h17.5v69.3
	h-17.5V0.1z M825.3,0.1h17.5v69.3h-17.5V0.1z M919.7,0.1h17.5v69.3h-17.5V0.1z M1016,0.1h17.5v69.3H1016V0.1z"/>
<path class="st2" d="M0,0.1h17.5v69.3H0V0.1z M94.8,0.1h17.5v69.3H94.8V0.1z M188.8,0.1h17.5v69.3h-17.5V0.1z M283.2,0.1h17.5v69.3
	h-17.5V0.1z M377.9,0.1h17.5v69.3h-17.5V0.1z M472.3,0.1h17.5v69.3h-17.5V0.1z M566.3,0.1h17.5v69.3h-17.5V0.1z M660.7,0.1h17.5
	v69.3h-17.5V0.1z M755.1,0.1h17.5v69.3h-17.5V0.1z M849.6,0.1h17.5v69.3h-17.5V0.1z M943.6,0.1h17.5v69.3h-17.5V0.1z M1039.2,0.1
	h17.5v69.3h-17.5V0.1z"/>
<path class="st3" d="M23.6,0.1h17.5v69.3H23.6V0.1z M118,0.1h17.5v69.3H118V0.1z M212.1,0.1h17.5v69.3h-17.5V0.1z M306.5,0.1H324
	v69.3h-17.5V0.1z M401.2,0.1h17.5v69.3h-17.5V0.1z M495.6,0.1h17.5v69.3h-17.5V0.1z M589.6,0.1h17.5v69.3h-17.5V0.1z M683.5,0.1H701
	v69.3h-17.5V0.1z M778.4,0.1h17.5v69.3h-17.5V0.1z M872.8,0.1h17.5v69.3h-17.5V0.1z M967.4,0.1h17.5v69.3h-17.5V0.1z M1062.9,0.1
	h17.5v69.3h-17.5V0.1z"/>
</svg>
