<?xml version="1.0" encoding="utf-8"?>
<!-- Generator: Adobe Illustrator 26.5.0, SVG Export Plug-In . SVG Version: 6.00 Build 0)  -->
<svg version="1.1" id="Layer_1" xmlns="http://www.w3.org/2000/svg" xmlns:xlink="http://www.w3.org/1999/xlink" x="0px" y="0px"
	 viewBox="0 0 1080 69.3" style="enable-background:new 0 0 1080 69.3;" xml:space="preserve">
<style type="text/css">
	.st0{fill:#447B24;}
</style>
<path id="Mountains_x09_" class="st0" d="M1079.9,26.5c-19.4,9.2-41.7,19.5-61,28.9c-9,4.3-17.7,4.7-26.6,0.3
	c-17.2-8.3-34.5-16.3-51.6-24.8c-4.8-2.4-8.9-2.5-13.7-0.2c-16.7,8.2-33.7,15.9-50.4,24.2c-9.8,4.9-19.2,5-29,0.1
	c-16.7-8.2-33.7-15.9-50.4-24.1c-5.1-2.5-9.4-2.3-14.3,0.2c-17.1,8.4-34.4,16.5-51.6,24.7c-8.7,4.2-17.3,3.9-26-0.4
	c-17.3-8.5-34.8-16.6-52.2-25c-4.4-2.1-8.2-1.9-12.5,0.2c-17.3,8.5-34.8,16.6-52.2,25c-8.7,4.2-17.3,4.2-26,0
	c-17.2-8.3-34.5-16.3-51.6-24.8c-4.8-2.4-8.9-2.5-13.7-0.1c-16.9,8.3-34.1,16.1-51,24.4c-9.4,4.6-18.5,4.6-27.9,0.1
	c-16.8-8.1-33.7-15.9-50.4-24.2c-5.2-2.6-9.7-2.7-14.9,0c-16.5,8.2-33.2,15.8-49.8,24c-9.8,4.8-19.2,4.8-29-0.2
	c-16.9-8.4-34.1-16.2-51-24.4c-4.4-2.1-8.2-1.9-12.5,0.2c-17.3,8.4-34.9,16.6-52.2,25c-8.8,4.2-17.3,4.1-26,0
	c-17-8.1-34.1-16.1-51-24.5c-5-2.4-9.1-2.9-14.3-0.3C48.4,40.1,18.3,55.4-0.4,64.5V44c17.2-8.3,43.8-21,61-29.3
	c9-4.3,17.8-4.1,26.7,0.2c17.2,8.3,34.4,16.4,51.6,24.7c4.6,2.2,8.4,2.2,13.1-0.1c17.3-8.5,34.8-16.6,52.2-24.9
	c8.7-4.2,17.3-4.1,26,0.1c17.4,8.4,34.9,16.5,52.2,25c4.4,2.1,8.1,2.2,12.5,0.1c17.1-8.4,34.4-16.4,51.6-24.8
	c9.1-4.4,18.1-4.7,27.3-0.2c16.8,8.1,33.7,15.9,50.3,24.3c5.8,2.9,10.6,2.6,16.1-0.1c16.5-8.2,33.2-15.9,49.7-24
	c9.4-4.6,18.5-4.4,27.9,0.2c16.7,8.2,33.7,16,50.4,24.2c5,2.4,9.1,2.5,14.3,0c17.3-8.6,34.8-16.6,52.2-24.9
	c8.3-3.9,16.5-3.9,24.8,0.1c17.2,8.3,34.5,16.2,51.6,24.7c5.2,2.6,9.6,2.8,14.9,0.1c16.5-8.2,33.3-15.8,49.8-23.9
	c9.6-4.8,18.8-5,28.4-0.3c16.7,8.2,33.7,15.9,50.4,24.2c5.3,2.6,9.7,2.5,14.9-0.1c16.7-8.2,33.7-16,50.4-24.2
	c9.7-4.8,18.9-4.3,28.4,0.4c16.5,8.1,33.3,15.8,49.8,23.9c5,2.5,9.2,2.6,14.3,0.1c18.5-9.1,49.1-22.9,67.6-32v19
	C1080,26.5,1079.9,26.5,1079.9,26.5z"/>
</svg>
