<?xml version="1.0" encoding="utf-8"?>
<!-- Generator: Adobe Illustrator 26.5.0, SVG Export Plug-In . SVG Version: 6.00 Build 0)  -->
<svg version="1.1" id="Layer_1" xmlns="http://www.w3.org/2000/svg" xmlns:xlink="http://www.w3.org/1999/xlink" x="0px" y="0px"
	 viewBox="0 0 1080 69.3" style="enable-background:new 0 0 1080 69.3;" xml:space="preserve">
<style type="text/css">
	.st0{fill:#60913A;}
	.st1{fill:#B9CEA3;}
	.st2{display:none;}
	.st3{display:inline;fill:#B9CEA3;}
	.st4{display:inline;}
	.st5{fill:#ADA58A;}
	.st6{fill:#4F9329;}
	.st7{fill:#275E31;}
	.st8{fill:#FFFFFF;}
	.st9{fill:#C3291C;}
	.st10{fill:#DD792D;}
	.st11{fill:#E7BD40;}
	.st12{fill:#90B537;}
</style>
<path class="st0" d="M-0.2,0h17.5v69.3H-0.2V0z M94.2,0h17.5v69.3H94.2V0z M188.2,0h17.5v69.3h-17.5V0z M282.9,0h17.5v69.3h-17.5V0z
	 M377.3,0h17.5v69.3h-17.5V0z M471.4,0h17.5v69.3h-17.5V0z M566.1,0h17.5v69.3h-17.5V0z M660.5,0H678v69.3h-17.5V0z M754.6,0h17.5
	v69.3h-17.5V0z M849.6,0h17.5v69.3h-17.5V0z M944.2,0h17.5v69.3h-17.5V0z M1038.6,0h17.5v69.3h-17.5V0z"/>
<path class="st1" d="M23.2,0h17.5v69.3H23.2V0z M46.9,0h17.5v69.3H46.9V0z M70.1,0h17.5v69.3H70.1V0z M117.7,0h17.5v69.3h-17.5V0z
	 M141.5,0H159v69.3h-17.5V0z M164.8,0h17.5v69.3h-17.5V0z M211.7,0h17.5v69.3h-17.5V0z M235.9,0h17.5v69.3h-17.5V0z M259.2,0h17.5
	v69.3h-17.5V0z M306.4,0h17.5v69.3h-17.5V0z M330,0h17.5v69.3H330V0z M353.3,0h17.5v69.3h-17.5V0z M400.8,0h17.5v69.3h-17.5V0z
	 M424.8,0h17.5v69.3h-17.5V0z M448,0h17.5v69.3H448V0z M494.9,0h17.5v69.3h-17.5L494.9,0L494.9,0z M519.2,0h17.5v69.3h-17.5V0z
	 M542.4,0h17.5v69.3h-17.5V0z M589.6,0h17.5v69.3h-17.5V0z M613.2,0h17.5v69.3h-17.5V0z M636.5,0H654v69.3h-17.5V0z M684,0h17.5
	v69.3H684V0z M707.9,0h17.5v69.3h-17.5V0z M731.1,0h17.5v69.3h-17.5V0z M778,0h17.5v69.3H778V0z M802.3,0h17.5v69.3h-17.5V0z
	 M825.6,0h17.5v69.3h-17.5V0z M874,0h17.5v69.3H874V0z M897.3,0h17.5v69.3h-17.5V0z M921.2,0h17.5v69.3h-17.5V0z M968.1,0h17.5v69.3
	h-17.5V0z M991.3,0h17.5v69.3h-17.5V0z M1015.6,0h17.5v69.3h-17.5V0z M1062.5,0h17.5v69.3h-17.5V0z"/>
<g id="Shrublands_x09_" class="st2">
	<rect x="23.2" class="st3" width="17.5" height="69.3"/>
	<rect x="46.9" class="st3" width="17.5" height="69.3"/>
	<rect x="70.1" class="st3" width="17.5" height="69.3"/>
	<rect x="117.7" class="st3" width="17.5" height="69.3"/>
	<rect x="141.5" class="st3" width="17.5" height="69.3"/>
	<rect x="164.8" class="st3" width="17.5" height="69.3"/>
	<rect x="211.7" class="st3" width="17.5" height="69.3"/>
	<rect x="235.9" class="st3" width="17.5" height="69.3"/>
	<rect x="259.2" class="st3" width="17.5" height="69.3"/>
	<rect x="306.4" class="st3" width="17.5" height="69.3"/>
	<rect x="330" class="st3" width="17.5" height="69.3"/>
	<rect x="353.3" class="st3" width="17.5" height="69.3"/>
	<rect x="400.8" class="st3" width="17.5" height="69.3"/>
	<rect x="424.8" class="st3" width="17.5" height="69.3"/>
	<rect x="448" class="st3" width="17.5" height="69.3"/>
	<rect x="494.9" class="st3" width="17.5" height="69.3"/>
	<rect x="519.2" class="st3" width="17.5" height="69.3"/>
	<rect x="542.4" class="st3" width="17.5" height="69.3"/>
	<rect x="589.6" class="st3" width="17.5" height="69.3"/>
	<rect x="613.2" class="st3" width="17.5" height="69.3"/>
	<rect x="636.5" class="st3" width="17.5" height="69.3"/>
	<rect x="684" class="st3" width="17.5" height="69.3"/>
	<rect x="707.9" class="st3" width="17.5" height="69.3"/>
	<rect x="731.1" class="st3" width="17.5" height="69.3"/>
	<rect x="778" class="st3" width="17.5" height="69.3"/>
	<rect x="802.3" class="st3" width="17.5" height="69.3"/>
	<rect x="825.6" class="st3" width="17.5" height="69.3"/>
	<rect x="874" class="st3" width="17.5" height="69.3"/>
	<rect x="897.3" class="st3" width="17.5" height="69.3"/>
	<rect x="921.2" class="st3" width="17.5" height="69.3"/>
	<rect x="968.1" class="st3" width="17.5" height="69.3"/>
	<rect x="991.3" class="st3" width="17.5" height="69.3"/>
	<rect x="1015.6" class="st3" width="17.5" height="69.3"/>
	<g class="st4">
		<g>
			<g>
				<rect class="st5" width="17.5" height="69.3"/>
			</g>
			<g>
				<rect x="94.4" class="st5" width="17.5" height="69.3"/>
			</g>
			<g>
				<rect x="188.4" class="st5" width="17.5" height="69.3"/>
			</g>
			<g>
				<rect x="283.1" class="st5" width="17.5" height="69.3"/>
			</g>
			<g>
				<rect x="377.5" class="st5" width="17.5" height="69.3"/>
			</g>
			<g>
				<rect x="471.6" class="st5" width="17.5" height="69.3"/>
			</g>
			<g>
				<rect x="566.3" class="st5" width="17.5" height="69.3"/>
			</g>
			<g>
				<rect x="660.7" class="st5" width="17.5" height="69.3"/>
			</g>
			<g>
				<rect x="754.8" class="st5" width="17.5" height="69.3"/>
			</g>
			<g>
				<rect x="849.8" class="st5" width="17.5" height="69.3"/>
			</g>
			<g>
				<rect x="944.4" class="st5" width="17.5" height="69.3"/>
			</g>
			<g>
				<rect x="1038.8" class="st5" width="17.5" height="69.3"/>
			</g>
		</g>
	</g>
	<rect x="1062.5" class="st3" width="17.5" height="69.3"/>
</g>
<g id="Rainforests_x09_" class="st2">
	<g class="st4">
		<rect y="34.6" width="17.5" height="34.6"/>
		<rect x="46.9" y="34.6" width="17.5" height="34.6"/>
		<rect x="94.4" y="34.6" width="17.5" height="34.6"/>
		<rect x="141.5" y="34.6" width="17.5" height="34.6"/>
		<rect x="188.4" y="34.6" width="17.5" height="34.6"/>
		<rect x="235.9" y="34.6" width="17.5" height="34.6"/>
		<rect x="283.1" y="34.6" width="17.5" height="34.6"/>
		<rect x="330" y="34.6" width="17.5" height="34.6"/>
		<rect x="377.5" y="34.6" width="17.5" height="34.6"/>
		<rect x="424.8" y="34.6" width="17.5" height="34.6"/>
		<rect x="471.6" y="34.6" width="17.5" height="34.6"/>
		<rect x="519.2" y="34.6" width="17.5" height="34.6"/>
		<rect x="566.3" y="34.6" width="17.5" height="34.6"/>
		<rect x="613.2" y="34.6" width="17.5" height="34.6"/>
		<rect x="660.7" y="34.6" width="17.5" height="34.6"/>
		<rect x="707.9" y="34.6" width="17.5" height="34.6"/>
		<rect x="754.8" y="34.6" width="17.5" height="34.6"/>
		<rect x="802.3" y="34.6" width="17.5" height="34.6"/>
		<rect x="849.8" y="34.6" width="17.5" height="34.6"/>
		<rect x="897.3" y="34.6" width="17.5" height="34.6"/>
		<rect x="944.4" y="34.6" width="17.5" height="34.6"/>
		<rect x="991.3" y="34.6" width="17.5" height="34.6"/>
		<rect x="1038.8" y="34.6" width="17.5" height="34.6"/>
	</g>
	<g class="st4">
		<rect x="23.2" class="st6" width="17.5" height="34.6"/>
		<rect x="70.1" class="st6" width="17.5" height="34.6"/>
		<rect x="117.7" class="st6" width="17.5" height="34.6"/>
		<rect x="164.8" class="st6" width="17.5" height="34.6"/>
		<rect x="211.7" class="st6" width="17.5" height="34.6"/>
		<rect x="259.2" class="st6" width="17.5" height="34.6"/>
		<rect x="306.4" class="st6" width="17.5" height="34.6"/>
		<rect x="353.3" class="st6" width="17.5" height="34.6"/>
		<rect x="400.8" class="st6" width="17.5" height="34.6"/>
		<rect x="448" class="st6" width="17.5" height="34.6"/>
		<rect x="494.9" class="st6" width="17.5" height="34.6"/>
		<rect x="542.4" class="st6" width="17.5" height="34.6"/>
		<rect x="589.6" class="st6" width="17.5" height="34.6"/>
		<rect x="636.5" class="st6" width="17.5" height="34.6"/>
		<rect x="684" class="st6" width="17.5" height="34.6"/>
		<rect x="731.1" class="st6" width="17.5" height="34.6"/>
		<rect x="778" class="st6" width="17.5" height="34.6"/>
		<rect x="825.6" class="st6" width="17.5" height="34.6"/>
		<rect x="874" class="st6" width="17.5" height="34.6"/>
		<rect x="921.2" class="st6" width="17.5" height="34.6"/>
		<rect x="968.1" class="st6" width="17.5" height="34.6"/>
		<rect x="1015.6" class="st6" width="17.5" height="34.6"/>
		<rect x="1062.5" class="st6" width="17.5" height="34.6"/>
	</g>
	<g class="st4">
		<rect class="st7" width="17.5" height="34.6"/>
		<rect x="46.9" class="st7" width="17.5" height="34.6"/>
		<rect x="94.4" class="st7" width="17.5" height="34.6"/>
		<rect x="141.5" class="st7" width="17.5" height="34.6"/>
		<rect x="188.4" class="st7" width="17.5" height="34.6"/>
		<rect x="235.9" class="st7" width="17.5" height="34.6"/>
		<rect x="283.1" class="st7" width="17.5" height="34.6"/>
		<rect x="330" class="st7" width="17.5" height="34.6"/>
		<rect x="377.5" class="st7" width="17.5" height="34.6"/>
		<rect x="424.8" class="st7" width="17.5" height="34.6"/>
		<rect x="471.6" class="st7" width="17.5" height="34.6"/>
		<rect x="519.2" class="st7" width="17.5" height="34.6"/>
		<rect x="566.3" class="st7" width="17.5" height="34.6"/>
		<rect x="613.2" class="st7" width="17.5" height="34.6"/>
		<rect x="660.7" class="st7" width="17.5" height="34.6"/>
		<rect x="707.9" class="st7" width="17.5" height="34.6"/>
		<rect x="754.8" class="st7" width="17.5" height="34.6"/>
		<rect x="802.3" class="st7" width="17.5" height="34.6"/>
		<rect x="849.8" class="st7" width="17.5" height="34.6"/>
		<rect x="897.3" class="st7" width="17.5" height="34.6"/>
		<rect x="944.4" class="st7" width="17.5" height="34.6"/>
		<rect x="991.3" class="st7" width="17.5" height="34.6"/>
		<rect x="1038.8" class="st7" width="17.5" height="34.6"/>
	</g>
	<g class="st4">
		<rect x="23.2" y="34.6" class="st8" width="17.5" height="34.6"/>
		<rect x="70.1" y="34.6" class="st8" width="17.5" height="34.6"/>
		<rect x="117.7" y="34.6" class="st8" width="17.5" height="34.6"/>
		<rect x="164.8" y="34.6" class="st8" width="17.5" height="34.6"/>
		<rect x="211.7" y="34.6" class="st8" width="17.5" height="34.6"/>
		<rect x="259.2" y="34.6" class="st8" width="17.5" height="34.6"/>
		<rect x="306.4" y="34.6" class="st8" width="17.5" height="34.6"/>
		<rect x="353.3" y="34.6" class="st8" width="17.5" height="34.6"/>
		<rect x="400.8" y="34.6" class="st8" width="17.5" height="34.6"/>
		<rect x="448" y="34.6" class="st8" width="17.5" height="34.6"/>
		<rect x="494.9" y="34.6" class="st8" width="17.5" height="34.6"/>
		<rect x="542.4" y="34.6" class="st8" width="17.5" height="34.6"/>
		<rect x="589.6" y="34.6" class="st8" width="17.5" height="34.6"/>
		<rect x="636.5" y="34.6" class="st8" width="17.5" height="34.6"/>
		<rect x="684" y="34.6" class="st8" width="17.5" height="34.6"/>
		<rect x="731.1" y="34.6" class="st8" width="17.5" height="34.6"/>
		<rect x="778" y="34.6" class="st8" width="17.5" height="34.6"/>
		<rect x="825.6" y="34.6" class="st8" width="17.5" height="34.6"/>
		<rect x="874" y="34.6" class="st8" width="17.5" height="34.6"/>
		<rect x="921.2" y="34.6" class="st8" width="17.5" height="34.6"/>
		<rect x="968.1" y="34.6" class="st8" width="17.5" height="34.6"/>
		<rect x="1015.6" y="34.6" class="st8" width="17.5" height="34.6"/>
		<rect x="1062.5" y="34.6" class="st8" width="17.5" height="34.6"/>
	</g>
</g>
<g id="Tundra" class="st2">
	<g class="st4">
		<rect class="st9" width="17.5" height="69.3"/>
		<rect x="94.4" class="st9" width="17.5" height="69.3"/>
		<rect x="188.4" class="st9" width="17.5" height="69.3"/>
		<rect x="283.1" class="st9" width="17.5" height="69.3"/>
		<rect x="377.5" class="st9" width="17.5" height="69.3"/>
		<rect x="471.6" class="st9" width="17.5" height="69.3"/>
		<rect x="566.3" class="st9" width="17.5" height="69.3"/>
		<rect x="660.7" class="st9" width="17.5" height="69.3"/>
		<rect x="754.8" class="st9" width="17.5" height="69.3"/>
		<rect x="849.8" class="st9" width="17.5" height="69.3"/>
		<rect x="944.4" class="st9" width="17.5" height="69.3"/>
		<rect x="1038.8" class="st9" width="17.5" height="69.3"/>
	</g>
	<g class="st4">
		<rect x="23.2" y="34.6" class="st10" width="17.5" height="34.6"/>
		<rect x="46.9" y="34.6" class="st10" width="17.5" height="34.6"/>
		<rect x="70.1" y="34.6" class="st10" width="17.5" height="34.6"/>
		<rect x="117.7" y="34.6" class="st10" width="17.5" height="34.6"/>
		<rect x="141.5" y="34.6" class="st10" width="17.5" height="34.6"/>
		<rect x="164.8" y="34.6" class="st10" width="17.5" height="34.6"/>
		<rect x="211.7" y="34.6" class="st10" width="17.5" height="34.6"/>
		<rect x="235.9" y="34.6" class="st10" width="17.5" height="34.6"/>
		<rect x="259.2" y="34.6" class="st10" width="17.5" height="34.6"/>
		<rect x="306.4" y="34.6" class="st10" width="17.5" height="34.6"/>
		<rect x="330" y="34.6" class="st10" width="17.5" height="34.6"/>
		<rect x="353.3" y="34.6" class="st10" width="17.5" height="34.6"/>
		<rect x="400.8" y="34.6" class="st10" width="17.5" height="34.6"/>
		<rect x="424.8" y="34.6" class="st10" width="17.5" height="34.6"/>
		<rect x="448" y="34.6" class="st10" width="17.5" height="34.6"/>
		<rect x="494.9" y="34.6" class="st10" width="17.5" height="34.6"/>
		<rect x="519.2" y="34.6" class="st10" width="17.5" height="34.6"/>
		<rect x="542.4" y="34.6" class="st10" width="17.5" height="34.6"/>
		<rect x="589.6" y="34.6" class="st10" width="17.5" height="34.6"/>
		<rect x="613.2" y="34.6" class="st10" width="17.5" height="34.6"/>
		<rect x="636.5" y="34.6" class="st10" width="17.5" height="34.6"/>
		<rect x="684" y="34.6" class="st10" width="17.5" height="34.6"/>
		<rect x="707.9" y="34.6" class="st10" width="17.5" height="34.6"/>
		<rect x="731.1" y="34.6" class="st10" width="17.5" height="34.6"/>
		<rect x="778" y="34.6" class="st10" width="17.5" height="34.6"/>
		<rect x="802.3" y="34.6" class="st10" width="17.5" height="34.6"/>
		<rect x="825.6" y="34.6" class="st10" width="17.5" height="34.6"/>
		<rect x="874" y="34.6" class="st10" width="17.5" height="34.6"/>
		<rect x="897.3" y="34.6" class="st10" width="17.5" height="34.6"/>
		<rect x="921.2" y="34.6" class="st10" width="17.5" height="34.6"/>
		<rect x="968.1" y="34.6" class="st10" width="17.5" height="34.6"/>
		<rect x="991.3" y="34.6" class="st10" width="17.5" height="34.6"/>
		<rect x="1015.6" y="34.6" class="st10" width="17.5" height="34.6"/>
		<rect x="1062.5" y="34.6" class="st10" width="17.5" height="34.6"/>
	</g>
	<g class="st4">
		<rect x="23.2" class="st11" width="17.5" height="34.6"/>
		<rect x="46.9" class="st11" width="17.5" height="34.6"/>
		<rect x="70.1" class="st11" width="17.5" height="34.6"/>
		<rect x="117.7" class="st11" width="17.5" height="34.6"/>
		<rect x="141.5" class="st11" width="17.5" height="34.6"/>
		<rect x="164.8" class="st11" width="17.5" height="34.6"/>
		<rect x="211.7" class="st11" width="17.5" height="34.6"/>
		<rect x="235.9" class="st11" width="17.5" height="34.6"/>
		<rect x="259.2" class="st11" width="17.5" height="34.6"/>
		<rect x="306.4" class="st11" width="17.5" height="34.6"/>
		<rect x="330" class="st11" width="17.5" height="34.6"/>
		<rect x="353.3" class="st11" width="17.5" height="34.6"/>
		<rect x="400.8" class="st11" width="17.5" height="34.6"/>
		<rect x="424.8" class="st11" width="17.5" height="34.6"/>
		<rect x="448" class="st11" width="17.5" height="34.6"/>
		<rect x="494.9" class="st11" width="17.5" height="34.6"/>
		<rect x="519.2" class="st11" width="17.5" height="34.6"/>
		<rect x="542.4" class="st11" width="17.5" height="34.6"/>
		<rect x="589.6" class="st11" width="17.5" height="34.6"/>
		<rect x="613.2" class="st11" width="17.5" height="34.6"/>
		<rect x="636.5" class="st11" width="17.5" height="34.6"/>
		<rect x="684" class="st11" width="17.5" height="34.6"/>
		<rect x="707.9" class="st11" width="17.5" height="34.6"/>
		<rect x="731.1" class="st11" width="17.5" height="34.6"/>
		<rect x="778" class="st11" width="17.5" height="34.6"/>
		<rect x="802.3" class="st11" width="17.5" height="34.6"/>
		<rect x="825.6" class="st11" width="17.5" height="34.6"/>
		<rect x="874" class="st11" width="17.5" height="34.6"/>
		<rect x="897.3" class="st11" width="17.5" height="34.6"/>
		<rect x="921.2" class="st11" width="17.5" height="34.6"/>
		<rect x="968.1" class="st11" width="17.5" height="34.6"/>
		<rect x="991.3" class="st11" width="17.5" height="34.6"/>
		<rect x="1015.6" class="st11" width="17.5" height="34.6"/>
		<rect x="1062.5" class="st11" width="17.5" height="34.6"/>
	</g>
</g>
<g id="Woodlands_x09_" class="st2">
	<g class="st4">
		<rect x="0.2" y="34.6" width="17.5" height="34.6"/>
		<rect x="94.7" y="34.6" width="17.5" height="34.6"/>
		<rect x="188.7" y="34.6" width="17.5" height="34.6"/>
		<rect x="283.4" y="34.6" width="17.5" height="34.6"/>
		<rect x="377.8" y="34.6" width="17.5" height="34.6"/>
		<rect x="471.9" y="34.6" width="17.5" height="34.6"/>
		<rect x="566.6" y="34.6" width="17.5" height="34.6"/>
		<rect x="661" y="34.6" width="17.5" height="34.6"/>
		<rect x="755" y="34.6" width="17.5" height="34.6"/>
		<rect x="850" y="34.6" width="17.5" height="34.6"/>
		<rect x="944.7" y="34.6" width="17.5" height="34.6"/>
		<rect x="1039.1" y="34.6" width="17.5" height="34.6"/>
	</g>
	<g class="st4">
		<rect x="23.5" y="34.6" class="st9" width="17.5" height="34.6"/>
		<rect x="47.1" y="34.6" class="st9" width="17.5" height="34.6"/>
		<rect x="70.4" y="34.6" class="st9" width="17.5" height="34.6"/>
		<rect x="117.9" y="34.6" class="st9" width="17.5" height="34.6"/>
		<rect x="141.8" y="34.6" class="st9" width="17.5" height="34.6"/>
		<rect x="165.1" y="34.6" class="st9" width="17.5" height="34.6"/>
		<rect x="212" y="34.6" class="st9" width="17.5" height="34.6"/>
		<rect x="236.2" y="34.6" class="st9" width="17.5" height="34.6"/>
		<rect x="259.5" y="34.6" class="st9" width="17.5" height="34.6"/>
		<rect x="306.6" y="34.6" class="st9" width="17.5" height="34.6"/>
		<rect x="330.3" y="34.6" class="st9" width="17.5" height="34.6"/>
		<rect x="353.5" y="34.6" class="st9" width="17.5" height="34.6"/>
		<rect x="401.1" y="34.6" class="st9" width="17.5" height="34.6"/>
		<rect x="425" y="34.6" class="st9" width="17.5" height="34.6"/>
		<rect x="448.3" y="34.6" class="st9" width="17.5" height="34.6"/>
		<rect x="495.2" y="34.6" class="st9" width="17.5" height="34.6"/>
		<rect x="519.4" y="34.6" class="st9" width="17.5" height="34.6"/>
		<rect x="542.7" y="34.6" class="st9" width="17.5" height="34.6"/>
		<rect x="589.8" y="34.6" class="st9" width="17.5" height="34.6"/>
		<rect x="613.5" y="34.6" class="st9" width="17.5" height="34.6"/>
		<rect x="636.7" y="34.6" class="st9" width="17.5" height="34.6"/>
		<rect x="684.3" y="34.6" class="st9" width="17.5" height="34.6"/>
		<rect x="708.1" y="34.6" class="st9" width="17.5" height="34.6"/>
		<rect x="731.4" y="34.6" class="st9" width="17.5" height="34.6"/>
		<rect x="778.3" y="34.6" class="st9" width="17.5" height="34.6"/>
		<rect x="802.6" y="34.6" class="st9" width="17.5" height="34.6"/>
		<rect x="825.8" y="34.6" class="st9" width="17.5" height="34.6"/>
		<rect x="874.3" y="34.6" class="st9" width="17.5" height="34.6"/>
		<rect x="897.5" y="34.6" class="st9" width="17.5" height="34.6"/>
		<rect x="921.4" y="34.6" class="st9" width="17.5" height="34.6"/>
		<rect x="968.3" y="34.6" class="st9" width="17.5" height="34.6"/>
		<rect x="991.6" y="34.6" class="st9" width="17.5" height="34.6"/>
		<rect x="1015.8" y="34.6" class="st9" width="17.5" height="34.6"/>
		<rect x="1062.8" y="34.6" class="st9" width="17.5" height="34.6"/>
	</g>
	<g class="st4">
		<rect x="23.5" class="st7" width="17.5" height="34.6"/>
		<rect x="47.1" class="st7" width="17.5" height="34.6"/>
		<rect x="70.4" class="st7" width="17.5" height="34.6"/>
		<rect x="117.9" class="st7" width="17.5" height="34.6"/>
		<rect x="141.8" class="st7" width="17.5" height="34.6"/>
		<rect x="165.1" class="st7" width="17.5" height="34.6"/>
		<rect x="212" class="st7" width="17.5" height="34.6"/>
		<rect x="236.2" class="st7" width="17.5" height="34.6"/>
		<rect x="259.5" class="st7" width="17.5" height="34.6"/>
		<rect x="306.6" class="st7" width="17.5" height="34.6"/>
		<rect x="330.3" class="st7" width="17.5" height="34.6"/>
		<rect x="353.5" class="st7" width="17.5" height="34.6"/>
		<rect x="401.1" class="st7" width="17.5" height="34.6"/>
		<rect x="425" class="st7" width="17.5" height="34.6"/>
		<rect x="448.3" class="st7" width="17.5" height="34.6"/>
		<rect x="495.2" class="st7" width="17.5" height="34.6"/>
		<rect x="519.4" class="st7" width="17.5" height="34.6"/>
		<rect x="542.7" class="st7" width="17.5" height="34.6"/>
		<rect x="589.8" class="st7" width="17.5" height="34.6"/>
		<rect x="613.5" class="st7" width="17.5" height="34.6"/>
		<rect x="636.7" class="st7" width="17.5" height="34.6"/>
		<rect x="684.3" class="st7" width="17.5" height="34.6"/>
		<rect x="708.1" class="st7" width="17.5" height="34.6"/>
		<rect x="731.4" class="st7" width="17.5" height="34.6"/>
		<rect x="778.3" class="st7" width="17.5" height="34.6"/>
		<rect x="802.6" class="st7" width="17.5" height="34.6"/>
		<rect x="825.8" class="st7" width="17.5" height="34.6"/>
		<rect x="874.3" class="st7" width="17.5" height="34.6"/>
		<rect x="897.5" class="st7" width="17.5" height="34.6"/>
		<rect x="921.4" class="st7" width="17.5" height="34.6"/>
		<rect x="968.3" class="st7" width="17.5" height="34.6"/>
		<rect x="991.6" class="st7" width="17.5" height="34.6"/>
		<rect x="1015.8" class="st7" width="17.5" height="34.6"/>
		<rect x="1062.8" class="st7" width="17.5" height="34.6"/>
	</g>
	<g class="st4">
		<rect x="0.3" class="st12" width="17.5" height="34.6"/>
		<rect x="94.7" class="st12" width="17.5" height="34.6"/>
		<rect x="188.7" class="st12" width="17.5" height="34.6"/>
		<rect x="283.4" class="st12" width="17.5" height="34.6"/>
		<rect x="377.8" class="st12" width="17.5" height="34.6"/>
		<rect x="471.9" class="st12" width="17.5" height="34.6"/>
		<rect x="566.6" class="st12" width="17.5" height="34.6"/>
		<rect x="661" class="st12" width="17.5" height="34.6"/>
		<rect x="755.1" class="st12" width="17.5" height="34.6"/>
		<rect x="850" class="st12" width="17.5" height="34.6"/>
		<rect x="944.7" class="st12" width="17.5" height="34.6"/>
		<rect x="1039.1" class="st12" width="17.5" height="34.6"/>
	</g>
</g>
</svg>
