<?xml version="1.0" encoding="utf-8"?>
<!-- Generator: Adobe Illustrator 26.5.0, SVG Export Plug-In . SVG Version: 6.00 Build 0)  -->
<svg version="1.1" id="Layer_1" xmlns="http://www.w3.org/2000/svg" xmlns:xlink="http://www.w3.org/1999/xlink" x="0px" y="0px"
	 viewBox="0 0 1080 69.3" style="enable-background:new 0 0 1080 69.3;" xml:space="preserve">
<style type="text/css">
	.st0{fill:#60913B;}
	.st1{fill:#E0C059;}
</style>
<path class="st0" d="M-0.2,0.1h17.5v69.3H-0.2V0.1z M94.2,0.1h17.5v69.3H94.2V0.1z M188.2,0.1h17.5v69.3h-17.5V0.1z M282.9,0.1h17.5
	v69.3h-17.5V0.1z M377.3,0.1h17.5v69.3h-17.5V0.1z M471.4,0.1h17.5v69.3h-17.5V0.1z M566.1,0.1h17.5v69.3h-17.5V0.1z M660.5,0.1H678
	v69.3h-17.5V0.1z M754.6,0.1h17.5v69.3h-17.5V0.1z M849.5,0.1H867v69.3h-17.5V0.1z M944.2,0.1h17.5v69.3h-17.5V0.1z M1038.6,0.1
	h17.5v69.3h-17.5V0.1z"/>
<path class="st1" d="M23,0.1h17.5v69.3H23V0.1z M46.6,0.1h17.5v69.3H46.6V0.1z M69.9,0.1h17.5v69.3H69.9V0.1z M117.4,0.1h17.5v69.3
	h-17.5V0.1z M141.3,0.1h17.5v69.3h-17.5V0.1z M164.6,0.1h17.5v69.3h-17.5V0.1z M211.5,0.1H229v69.3h-17.5V0.1z M235.7,0.1h17.5v69.3
	h-17.5V0.1z M259,0.1h17.5v69.3H259V0.1z M306.1,0.1h17.5v69.3h-17.5V0.1z M329.8,0.1h17.5v69.3h-17.5V0.1z M353,0.1h17.5v69.3H353
	V0.1z M400.6,0.1h17.5v69.3h-17.5V0.1z M424.5,0.1H442v69.3h-17.5V0.1z M447.8,0.1h17.5v69.3h-17.5V0.1z M494.7,0.1h17.5v69.3h-17.5
	V0.1z M519,0.1h17.5v69.3H519V0.1z M542.2,0.1h17.5v69.3h-17.5V0.1z M589.4,0.1h17.5v69.3h-17.5V0.1z M613,0.1h17.5v69.3H613V0.1z
	 M636.3,0.1h17.5v69.3h-17.5V0.1z M683.8,0.1h17.5v69.3h-17.5V0.1z M707.7,0.1h17.5v69.3h-17.5V0.1z M730.9,0.1h17.5v69.3h-17.5V0.1
	z M777.8,0.1h17.5v69.3h-17.5V0.1z M802.1,0.1h17.5v69.3h-17.5V0.1z M825.4,0.1h17.5v69.3h-17.5V0.1z M873.8,0.1h17.5v69.3h-17.5
	V0.1z M897.1,0.1h17.5v69.3h-17.5V0.1z M920.9,0.1h17.5v69.3h-17.5V0.1z M967.8,0.1h17.5v69.3h-17.5V0.1z M991.1,0.1h17.5v69.3
	h-17.5V0.1z M1015.4,0.1h17.5v69.3h-17.5V0.1z M1062.3,0.1h17.5v69.3h-17.5V0.1z"/>
</svg>
