<?xml version="1.0" encoding="utf-8"?>
<!-- Generator: Adobe Illustrator 26.5.0, SVG Export Plug-In . SVG Version: 6.00 Build 0)  -->
<svg version="1.1" id="Layer_1" xmlns="http://www.w3.org/2000/svg" xmlns:xlink="http://www.w3.org/1999/xlink" x="0px" y="0px"
	 viewBox="0 0 1080 69.3" style="enable-background:new 0 0 1080 69.3;" xml:space="preserve">
<style type="text/css">
	.st0{fill:#1D4926;}
	.st1{fill:#C3291C;}
	.st2{fill:#4F9329;}
	.st3{fill:#E7BD40;}
	.st4{fill:#DD792D;}
</style>
<path class="st0" d="M1062.5,34.8h17.5v34.6h-17.5V34.8z M23.6,34.8h17.5v34.6H23.6V34.8z M70.7,34.8h17.5v34.6H70.7V34.8z
	 M118.3,34.8h17.5v34.6h-17.5V34.8z M165,34.8h17.5v34.6H165V34.8z M212.7,34.8h17.5v34.6h-17.5V34.8z M259.8,34.8h17.5v34.6h-17.5
	V34.8z M306.7,34.8h17.5v34.6h-17.5V34.8z M354.2,34.8h17.5v34.6h-17.5V34.8z M401.5,34.8H419v34.6h-17.5V34.8z M448.4,34.8h17.5
	v34.6h-17.5V34.8z M495.9,34.8h17.5v34.6h-17.5L495.9,34.8L495.9,34.8z M543,34.8h17.5v34.6H543V34.8z M589.9,34.8h17.5v34.6h-17.5
	V34.8z M637.5,34.8H655v34.6h-17.5V34.8z M684.6,34.8h17.5v34.6h-17.5V34.8z M731.5,34.8H749v34.6h-17.5V34.8z M779,34.8h17.5v34.6
	H779V34.8z M826.5,34.8H844v34.6h-17.5V34.8z M874,34.8h17.5v34.6H874V34.8z M921.2,34.8h17.5v34.6h-17.5V34.8z M968.1,34.8h17.5
	v34.6h-17.5V34.8z M1015.6,34.8h17.5v34.6h-17.5V34.8z M46.9,34.8h17.5v34.6H46.9V34.8z M141.5,34.8H159v34.6h-17.5V34.8z
	 M235.9,34.8h17.5v34.6h-17.5V34.8z M330,34.8h17.5v34.6H330V34.8z M424.8,34.8h17.5v34.6h-17.5V34.8z M519.2,34.8h17.5v34.6h-17.5
	V34.8z M613.2,34.8h17.5v34.6h-17.5V34.8z M707.9,34.8h17.5v34.6h-17.5V34.8z M802.3,34.8h17.5v34.6h-17.5V34.8z M897.9,34.8h17.5
	v34.6h-17.5V34.8z M992.3,34.8h17.5v34.6h-17.5V34.8z"/>
<path class="st1" d="M0,0.1h17.5v69.3H0V0.1z M94.4,0.1h17.5v69.3H94.4V0.1z M188.4,0.1h17.5v69.3h-17.5V0.1z M283.1,0.1h17.5v69.3
	h-17.5V0.1z M377.5,0.1H395v69.3h-17.5V0.1z M471.7,0.1h17.5v69.3h-17.5V0.1z M566.3,0.1h17.5v69.3h-17.5V0.1z M660.7,0.1h17.5v69.3
	h-17.5V0.1z M754.8,0.1h17.5v69.3h-17.5V0.1z M850.7,0.1h17.5v69.3h-17.5V0.1z M944.8,0.1h17.5v69.3h-17.5V0.1z M1039.3,0.1h17.5
	v69.3h-17.5V0.1z"/>
<path class="st2" d="M70.7,0.1h17.5v34.6H70.7V0.1z M165,0.1h17.5v34.6H165V0.1z M259.8,0.1h17.5v34.6h-17.5V0.1z M354.2,0.1h17.5
	v34.6h-17.5V0.1z M448.4,0.1h17.5v34.6h-17.5V0.1z M543,0.1h17.5v34.6H543V0.1z M637.5,0.1H655v34.6h-17.5V0.1z M731.5,0.1H749v34.6
	h-17.5V0.1z M826.6,0.1h17.5v34.6h-17.5V0.1z M920.8,0.1h17.5v34.6h-17.5V0.1z M1015.6,0.1h17.5v34.6h-17.5V0.1z"/>
<path class="st3" d="M46.9,0.1h17.5v34.6H46.9V0.1z M141.5,0.1H159v34.6h-17.5V0.1z M236,0.1h17.5v34.6H236V0.1z M330.1,0.1h17.5
	v34.6h-17.5V0.1z M424.8,0.1h17.5v34.6h-17.5V0.1z M519.2,0.1h17.5v34.6h-17.5V0.1z M613.3,0.1h17.5v34.6h-17.5V0.1z M707.9,0.1
	h17.5v34.6h-17.5V0.1z M802.4,0.1h17.5v34.6h-17.5V0.1z M897.9,0.1h17.5v34.6h-17.5V0.1z M992.3,0.1h17.5v34.6h-17.5V0.1z"/>
<path class="st4" d="M23.6,0.1h17.5v34.6H23.6V0.1z M118.3,0.1h17.5v34.6h-17.5V0.1z M212.7,0.1h17.5v34.6h-17.5V0.1z M306.7,0.1
	h17.5v34.6h-17.5V0.1z M401.5,0.1H419v34.6h-17.5V0.1z M495.9,0.1h17.5v34.6h-17.5L495.9,0.1L495.9,0.1z M589.9,0.1h17.5v34.6h-17.5
	V0.1z M684.6,0.1h17.5v34.6h-17.5V0.1z M779,0.1h17.5v34.6H779V0.1z M874,0.1h17.5v34.6H874V0.1z M968.1,0.1h17.5v34.6h-17.5V0.1z
	 M1062.5,0.1h17.5v34.6h-17.5V0.1z"/>
</svg>
