<?xml version="1.0" encoding="utf-8"?>
<!-- Generator: Adobe Illustrator 26.5.0, SVG Export Plug-In . SVG Version: 6.00 Build 0)  -->
<svg version="1.1" id="Layer_1" xmlns="http://www.w3.org/2000/svg" xmlns:xlink="http://www.w3.org/1999/xlink" x="0px" y="0px"
	 viewBox="0 0 1080 69.3" style="enable-background:new 0 0 1080 69.3;" xml:space="preserve">
<style type="text/css">
	.st0{fill:#4E3A2A;}
	.st1{fill:#4F9329;}
</style>
<path class="st0" d="M-0.2,34.8h17.5v34.6H-0.2V34.8z M46.6,34.8h17.5v34.6H46.6V34.8z M94.2,34.8h17.5v34.6H94.2V34.8z M141.3,34.8
	h17.5v34.6h-17.5V34.8z M188.2,34.8h17.5v34.6h-17.5V34.8z M235.7,34.8h17.5v34.6h-17.5V34.8z M282.9,34.8h17.5v34.6h-17.5V34.8z
	 M329.8,34.8h17.5v34.6h-17.5V34.8z M377.3,34.8h17.5v34.6h-17.5V34.8z M424.5,34.8H442v34.6h-17.5V34.8z M471.4,34.8h17.5v34.6
	h-17.5V34.8z M519,34.8h17.5v34.6H519V34.8z M566.1,34.8h17.5v34.6h-17.5V34.8z M613,34.8h17.5v34.6H613V34.8z M660.5,34.8H678v34.6
	h-17.5V34.8z M707.7,34.8h17.5v34.6h-17.5V34.8z M754.6,34.8h17.5v34.6h-17.5V34.8z M802.1,34.8h17.5v34.6h-17.5V34.8z M849.5,34.8
	H867v34.6h-17.5V34.8z M897.1,34.8h17.5v34.6h-17.5V34.8z M944.2,34.8h17.5v34.6h-17.5V34.8z M991.1,34.8h17.5v34.6h-17.5V34.8z
	 M1038.6,34.8h17.5v34.6h-17.5V34.8z"/>
<path class="st1" d="M23,0.1h17.5v69.3H23V0.1z M69.9,0.1h17.5v69.3H69.9V0.1z M117.4,0.1h17.5v69.3h-17.5V0.1z M164.6,0.1h17.5
	v69.3h-17.5V0.1z M211.5,0.1H229v69.3h-17.5V0.1z M259,0.1h17.5v69.3H259V0.1z M306.1,0.1h17.5v69.3h-17.5V0.1z M353,0.1h17.5v69.3
	H353V0.1z M400.6,0.1h17.5v69.3h-17.5V0.1z M447.8,0.1h17.5v69.3h-17.5V0.1z M494.7,0.1h17.5v69.3h-17.5V0.1z M542.2,0.1h17.5v69.3
	h-17.5V0.1z M589.4,0.1h17.5v69.3h-17.5V0.1z M636.3,0.1h17.5v69.3h-17.5V0.1z M683.8,0.1h17.5v69.3h-17.5V0.1z M730.9,0.1h17.5
	v69.3h-17.5V0.1z M777.8,0.1h17.5v69.3h-17.5V0.1z M825.4,0.1h17.5v69.3h-17.5V0.1z M873.8,0.1h17.5v69.3h-17.5V0.1z M920.9,0.1
	h17.5v69.3h-17.5V0.1z M967.8,0.1h17.5v69.3h-17.5V0.1z M1015.4,0.1h17.5v69.3h-17.5V0.1z M1062.3,0.1h17.5v69.3h-17.5V0.1z"/>
</svg>
