<?xml version="1.0" encoding="utf-8"?>
<!-- Generator: Adobe Illustrator 26.5.0, SVG Export Plug-In . SVG Version: 6.00 Build 0)  -->
<svg version="1.1" id="Layer_1" xmlns="http://www.w3.org/2000/svg" xmlns:xlink="http://www.w3.org/1999/xlink" x="0px" y="0px"
	 viewBox="0 0 1080 69.3" style="enable-background:new 0 0 1080 69.3;" xml:space="preserve">
<style type="text/css">
	.st0{fill:#C3291C;}
	.st1{fill:#DD792D;}
	.st2{fill:#E7BD40;}
</style>
<path class="st0" d="M0,0h17.5v69.3H0V0z M94.4,0h17.5v69.3H94.4V0z M188.4,0h17.5v69.3h-17.5V0z M283.1,0h17.5v69.3h-17.5V0z
	 M377.5,0H395v69.3h-17.5V0z M471.6,0h17.5v69.3h-17.5V0z M566.3,0h17.5v69.3h-17.5V0z M660.7,0h17.5v69.3h-17.5V0z M754.8,0h17.5
	v69.3h-17.5V0z M849.8,0h17.5v69.3h-17.5V0z M944.4,0h17.5v69.3h-17.5V0z M1038.8,0h17.5v69.3h-17.5V0z"/>
<path class="st1" d="M23.2,34.6h17.5v34.6H23.2V34.6z M46.9,34.6h17.5v34.6H46.9V34.6z M70.1,34.6h17.5v34.6H70.1V34.6z M117.7,34.6
	h17.5v34.6h-17.5V34.6z M141.5,34.6H159v34.6h-17.5V34.6z M164.8,34.6h17.5v34.6h-17.5V34.6z M211.7,34.6h17.5v34.6h-17.5V34.6z
	 M235.9,34.6h17.5v34.6h-17.5V34.6z M259.2,34.6h17.5v34.6h-17.5V34.6z M306.4,34.6h17.5v34.6h-17.5V34.6z M330,34.6h17.5v34.6H330
	V34.6z M353.3,34.6h17.5v34.6h-17.5V34.6z M400.8,34.6h17.5v34.6h-17.5V34.6z M424.8,34.6h17.5v34.6h-17.5V34.6z M448,34.6h17.5
	v34.6H448V34.6z M494.9,34.6h17.5v34.6h-17.5V34.6z M519.2,34.6h17.5v34.6h-17.5V34.6z M542.4,34.6h17.5v34.6h-17.5V34.6z
	 M589.6,34.6h17.5v34.6h-17.5V34.6z M613.2,34.6h17.5v34.6h-17.5V34.6z M636.5,34.6H654v34.6h-17.5V34.6z M684,34.6h17.5v34.6H684
	V34.6z M707.9,34.6h17.5v34.6h-17.5V34.6z M731.1,34.6h17.5v34.6h-17.5V34.6z M778,34.6h17.5v34.6H778V34.6z M802.3,34.6h17.5v34.6
	h-17.5V34.6z M825.6,34.6h17.5v34.6h-17.5V34.6z M874,34.6h17.5v34.6H874V34.6z M897.3,34.6h17.5v34.6h-17.5V34.6z M921.2,34.6h17.5
	v34.6h-17.5V34.6z M968.1,34.6h17.5v34.6h-17.5V34.6z M991.3,34.6h17.5v34.6h-17.5V34.6z M1015.6,34.6h17.5v34.6h-17.5V34.6z
	 M1062.5,34.6h17.5v34.6h-17.5V34.6z"/>
<path class="st2" d="M23.2,0h17.5v34.6H23.2V0z M46.9,0h17.5v34.6H46.9V0z M70.1,0h17.5v34.6H70.1V0z M117.7,0h17.5v34.6h-17.5V0z
	 M141.5,0H159v34.6h-17.5V0z M164.8,0h17.5v34.6h-17.5V0z M211.7,0h17.5v34.6h-17.5V0z M235.9,0h17.5v34.6h-17.5V0z M259.2,0h17.5
	v34.6h-17.5V0z M306.4,0h17.5v34.6h-17.5V0z M330,0h17.5v34.6H330V0z M353.3,0h17.5v34.6h-17.5V0z M400.8,0h17.5v34.6h-17.5V0z
	 M424.8,0h17.5v34.6h-17.5V0z M448,0h17.5v34.6H448V0z M494.9,0h17.5v34.6h-17.5V0z M519.2,0h17.5v34.6h-17.5V0z M542.4,0h17.5v34.6
	h-17.5V0z M589.6,0h17.5v34.6h-17.5V0z M613.2,0h17.5v34.6h-17.5V0z M636.5,0H654v34.6h-17.5V0z M684,0h17.5v34.6H684V0z M707.9,0
	h17.5v34.6h-17.5V0z M731.1,0h17.5v34.6h-17.5V0z M778,0h17.5v34.6H778V0z M802.3,0h17.5v34.6h-17.5V0z M825.6,0h17.5v34.6h-17.5V0z
	 M874,0h17.5v34.6H874V0z M897.3,0h17.5v34.6h-17.5V0z M921.2,0h17.5v34.6h-17.5V0z M968.1,0h17.5v34.6h-17.5V0z M991.3,0h17.5v34.6
	h-17.5V0z M1015.6,0h17.5v34.6h-17.5V0z M1062.5,0h17.5v34.6h-17.5V0z"/>
</svg>
