<?xml version="1.0" encoding="utf-8"?>
<!-- Generator: Adobe Illustrator 26.5.0, SVG Export Plug-In . SVG Version: 6.00 Build 0)  -->
<svg version="1.1" id="Layer_1" xmlns="http://www.w3.org/2000/svg" xmlns:xlink="http://www.w3.org/1999/xlink" x="0px" y="0px"
	 viewBox="0 0 1080 69.3" style="enable-background:new 0 0 1080 69.3;" xml:space="preserve">
<style type="text/css">
	.st0{fill:#C3291C;}
	.st1{fill:#275E31;}
	.st2{fill:#90B537;}
</style>
<path d="M0.2,34.6h17.5v34.6H0.2V34.6z M94.7,34.6h17.5v34.6H94.7V34.6z M188.7,34.6h17.5v34.6h-17.5V34.6z M283.4,34.6h17.5v34.6
	h-17.5V34.6z M377.8,34.6h17.5v34.6h-17.5V34.6z M471.9,34.6h17.5v34.6h-17.5V34.6z M566.6,34.6h17.5v34.6h-17.5V34.6z M661,34.6
	h17.5v34.6H661V34.6z M755,34.6h17.5v34.6H755V34.6z M850,34.6h17.5v34.6H850V34.6z M944.7,34.6h17.5v34.6h-17.5V34.6z M1039.1,34.6
	h17.5v34.6h-17.5V34.6z"/>
<path class="st0" d="M23.5,34.6H41v34.6H23.5V34.6z M47.1,34.6h17.5v34.6H47.1V34.6z M70.4,34.6h17.5v34.6H70.4V34.6z M117.9,34.6
	h17.5v34.6h-17.5V34.6z M141.8,34.6h17.5v34.6h-17.5V34.6z M165.1,34.6h17.5v34.6h-17.5V34.6z M212,34.6h17.5v34.6H212V34.6z
	 M236.2,34.6h17.5v34.6h-17.5V34.6z M259.5,34.6H277v34.6h-17.5V34.6z M306.6,34.6h17.5v34.6h-17.5V34.6z M330.3,34.6h17.5v34.6
	h-17.5V34.6z M353.5,34.6H371v34.6h-17.5V34.6z M401.1,34.6h17.5v34.6h-17.5V34.6z M425,34.6h17.5v34.6H425V34.6z M448.3,34.6h17.5
	v34.6h-17.5V34.6z M495.2,34.6h17.5v34.6h-17.5V34.6z M519.4,34.6h17.5v34.6h-17.5V34.6z M542.7,34.6h17.5v34.6h-17.5V34.6z
	 M589.8,34.6h17.5v34.6h-17.5V34.6z M613.5,34.6H631v34.6h-17.5V34.6z M636.7,34.6h17.5v34.6h-17.5V34.6z M684.3,34.6h17.5v34.6
	h-17.5V34.6z M708.1,34.6h17.5v34.6h-17.5V34.6z M731.4,34.6h17.5v34.6h-17.5V34.6z M778.3,34.6h17.5v34.6h-17.5V34.6z M802.6,34.6
	h17.5v34.6h-17.5V34.6z M825.8,34.6h17.5v34.6h-17.5V34.6z M874.3,34.6h17.5v34.6h-17.5V34.6z M897.5,34.6H915v34.6h-17.5V34.6z
	 M921.4,34.6h17.5v34.6h-17.5V34.6z M968.3,34.6h17.5v34.6h-17.5V34.6z M991.6,34.6h17.5v34.6h-17.5V34.6z M1015.8,34.6h17.5v34.6
	h-17.5V34.6z M1062.8,34.6h17.5v34.6h-17.5V34.6z"/>
<path class="st1" d="M23.5,0H41v34.6H23.5V0z M47.1,0h17.5v34.6H47.1V0z M70.4,0h17.5v34.6H70.4V0z M117.9,0h17.5v34.6h-17.5V0z
	 M141.8,0h17.5v34.6h-17.5V0z M165.1,0h17.5v34.6h-17.5V0z M212,0h17.5v34.6H212V0z M236.2,0h17.5v34.6h-17.5V0z M259.5,0H277v34.6
	h-17.5V0z M306.6,0h17.5v34.6h-17.5V0z M330.3,0h17.5v34.6h-17.5V0z M353.5,0H371v34.6h-17.5V0z M401.1,0h17.5v34.6h-17.5V0z M425,0
	h17.5v34.6H425V0z M448.3,0h17.5v34.6h-17.5V0z M495.2,0h17.5v34.6h-17.5V0z M519.4,0h17.5v34.6h-17.5V0z M542.7,0h17.5v34.6h-17.5
	V0z M589.8,0h17.5v34.6h-17.5V0z M613.5,0H631v34.6h-17.5V0z M636.7,0h17.5v34.6h-17.5V0z M684.3,0h17.5v34.6h-17.5V0z M708.1,0
	h17.5v34.6h-17.5V0z M731.4,0h17.5v34.6h-17.5V0z M778.3,0h17.5v34.6h-17.5V0z M802.6,0h17.5v34.6h-17.5V0z M825.8,0h17.5v34.6
	h-17.5V0z M874.3,0h17.5v34.6h-17.5V0z M897.5,0H915v34.6h-17.5V0z M921.4,0h17.5v34.6h-17.5V0z M968.3,0h17.5v34.6h-17.5V0z
	 M991.6,0h17.5v34.6h-17.5V0z M1015.8,0h17.5v34.6h-17.5V0z M1062.8,0h17.5v34.6h-17.5V0z"/>
<path class="st2" d="M0.3,0h17.5v34.6H0.3V0z M94.7,0h17.5v34.6H94.7V0z M188.7,0h17.5v34.6h-17.5V0z M283.4,0h17.5v34.6h-17.5V0z
	 M377.8,0h17.5v34.6h-17.5V0z M471.9,0h17.5v34.6h-17.5V0z M566.6,0h17.5v34.6h-17.5V0z M661,0h17.5v34.6H661V0z M755.1,0h17.5v34.6
	h-17.5V0z M850,0h17.5v34.6H850V0z M944.7,0h17.5v34.6h-17.5V0z M1039.1,0h17.5v34.6h-17.5V0z"/>
</svg>
